<?xml version="1.0" encoding="utf-8"?>
<!-- Generator: Adobe Illustrator 19.1.0, SVG Export Plug-In . SVG Version: 6.00 Build 0)  -->
<svg version="1.1" id="Capa_1" xmlns="http://www.w3.org/2000/svg" xmlns:xlink="http://www.w3.org/1999/xlink" x="0px" y="0px"
	 viewBox="-21 222.3 516.7 516.7" style="enable-background:new -21 222.3 516.7 516.7;" xml:space="preserve">
<style type="text/css">
	.st0{fill:#2B96D3;}
</style>
<g>
	<path class="st0" d="M495.7,489c-0.7-34.8-8.2-69.5-22.2-101.3c-13.9-31.8-34.1-60.6-58.9-84.3c-24.8-23.8-54.1-42.6-85.9-55
		c-31.8-12.5-65.9-18.4-99.7-17.7c-33.8,0.7-67.4,8-98.1,21.5c-30.8,13.5-58.6,33.1-81.6,57.1c-23,24-41.2,52.5-53.2,83.2
		c-12,30.8-17.8,63.8-17.1,96.5c0.7,32.7,7.8,65.2,20.9,94.9c13.1,29.7,32,56.7,55.3,78.9c23.2,22.3,50.8,39.8,80.5,51.4
		c29.7,11.6,61.7,17.1,93.3,16.4c31.6-0.7,63-7.6,91.7-20.3c28.7-12.6,54.7-31,76.2-53.5c21.5-22.5,38.5-49.1,49.6-77.8
		c6.8-17.4,11.4-35.6,13.8-54.1c0.6,0,1.3,0.1,2,0.1c18.4,0,33.3-14.9,33.3-33.3c0-0.9,0-1.9-0.1-2.8L495.7,489L495.7,489z
		 M442.8,577.5c-12.2,27.7-29.9,52.8-51.7,73.5c-21.7,20.7-47.4,37.1-75.1,47.8c-27.7,10.8-57.4,15.9-86.9,15.1
		c-29.5-0.7-58.6-7.2-85.3-19c-26.7-11.8-50.9-28.9-70.8-49.8c-20-20.9-35.7-45.7-46-72.4C16.6,546,11.7,517.4,12.4,489
		c0.7-28.4,6.9-56.5,18.4-82.1c11.4-25.7,27.9-48.9,48-68.1c20.2-19.2,44-34.3,69.7-44.2c25.7-9.9,53.2-14.6,80.5-13.9
		c27.3,0.7,54.3,6.7,78.9,17.7c24.7,11,47,26.8,65.4,46.2c18.4,19.4,32.9,42.3,42.4,67c9.5,24.7,13.9,51.1,13.2,77.3h0.1
		c-0.1,0.9-0.1,1.8-0.1,2.8c0,17.2,13,31.3,29.7,33.1C455.6,543,450.2,560.7,442.8,577.5z"/>
</g>
</svg>
