<?xml version="1.0" encoding="utf-8"?>
<!-- Generator: Adobe Illustrator 19.1.0, SVG Export Plug-In . SVG Version: 6.00 Build 0)  -->
<svg version="1.1" id="Capa_1" xmlns="http://www.w3.org/2000/svg" xmlns:xlink="http://www.w3.org/1999/xlink" x="0px" y="0px"
	 viewBox="26 174.9 612.1 612.1" style="enable-background:new 26 174.9 612.1 612.1;" xml:space="preserve">
<style type="text/css">
	.st0{fill:#2B96D3;}
</style>
<g>
	<g>
		<path class="st0" d="M351,618.6c0-1.9,0-1.9,0-3.8V423.5c0-11.5-7.6-19.1-19.1-19.1s-19.1,9.6-19.1,19.1v191.2c0,1.9,0,1.9,0,3.8
			c-23,7.7-38.2,28.7-38.2,53.5c0,32.5,24.9,57.4,57.4,57.4s57.4-24.9,57.4-57.4C389.4,647.3,374,626.3,351,618.6z"/>
		<path class="st0" d="M408.5,586.1c0-3.8,0-5.7,0-9.6V251.4c0-42.1-34.4-76.5-76.5-76.5s-76.5,34.4-76.5,76.5v325.1
			c0,3.8,0,5.7,0,9.6c-23,21-38.2,51.6-38.2,86.1c0,63.1,51.6,114.8,114.8,114.8s114.8-51.6,114.8-114.8
			C446.8,637.7,431.5,607.1,408.5,586.1z M332,748.7c-42.1,0-76.5-34.4-76.5-76.5c0-28.7,15.3-53.5,38.2-66.9V251.4
			c0-21,17.2-38.2,38.2-38.2s38.2,17.2,38.2,38.2v353.8c23,13.4,38.2,38.2,38.2,66.9C408.5,714.2,374,748.7,332,748.7z"/>
	</g>
</g>
</svg>
