<?xml version="1.0" encoding="utf-8"?>
<!-- Generator: Adobe Illustrator 19.1.0, SVG Export Plug-In . SVG Version: 6.00 Build 0)  -->
<svg version="1.1" id="Capa_1" xmlns="http://www.w3.org/2000/svg" xmlns:xlink="http://www.w3.org/1999/xlink" x="0px" y="0px"
	 viewBox="-230 431.4 98.6 98.6" style="enable-background:new -230 431.4 98.6 98.6;" xml:space="preserve">
<style type="text/css">
	.st0{opacity:0.88;fill:#FFFFFF;enable-background:new    ;}
</style>
<g>
	<g>
		<path class="st0" d="M-133.1,463.4c0-0.1,0-0.1-0.1-0.2l-0.2-0.3l0.1-0.2c0-0.1,0-0.2,0-0.2c-1.6-5.6-4.3-11-7.9-15.8
			c-0.1-0.1-0.1-0.1-0.2-0.2l-0.6-0.2c-0.1-0.1-0.3,0-0.5,0.1l-0.5,0.3c-0.3-0.4-0.7-0.8-0.8-1.1c-0.8-0.9-1.5-1.8-1.8-2.2
			c0-0.1,0-0.2,0-0.3l-0.2-0.7c-0.5-0.9-1.9-2.1-2.1-2.3c-0.1,0-0.6-0.4-1-0.6c-0.4-0.2-0.9-0.2-0.9-0.2c-0.1,0-0.2,0-0.3,0.1
			c-1.3-0.9-4.1-3.1-4.1-3.2c0,0-0.1-0.1-0.2-0.1l-0.6-0.2c-0.2-0.1-0.3,0-0.4,0.1c0,0-0.1,0.1-0.6,0.2c-0.6,0.1-1.1,0.2-1.5,0.3
			l-0.1,0c-0.6,0.1-0.8,0.3-0.9,0.5l-0.8,1.3c0,0,0,0.1-0.1,0.1c0,0.1,0,0.2,0,0.4c0,0,0,0,0-0.1c-0.2-0.4-0.6-0.8-0.7-0.9
			c-0.9-0.5-2.4-0.3-3-0.2c-1.1,0.2-2.6,0.7-2.9,0.8c-0.2,0.1-1.5,0.5-2.2,0.7c-0.4,0.1-0.7,0.2-1,0.3c-0.2,0.1-0.4,0.1-0.6,0.2
			c-0.3,0.1-1.7,0.5-4.4,1.3c-1,0.3-1.7,0.4-1.7,0.4c-0.3,0-0.6,0-0.9,0c-0.7,0-0.9-0.1-0.9-0.1c0,0,0-0.1,0-0.1l0-1.1
			c0-0.1-0.1-0.7-0.6-1c-0.4-0.2-1-0.3-1.7-0.3c-0.8,0-1.7,0-2.1,0.1c-0.8,0.2-1.5,0.5-1.9,1.1c-0.7,0.8-0.6,1.4-0.6,1.4
			c0,0,0,0.7,0.1,1.2c0,0.2,0.1,0.3,0.1,0.5c-0.4,0.2-1.1,0.5-2.3,0.8c-2,0.6-3.4,0.7-3.4,0.7c-0.3,0-0.5,0.3-0.4,0.5
			c0,0.5,0.5,2.9,0.5,3.2c0,0.1,0.2,1.3,0.3,1.7c0.1,0.3,0.3,1,0.3,1c0,0.1,0.2,0.6,0.7,0.8c0.4,0.2,1.2,0.3,2,0
			c0.7-0.3,1-0.6,1.2-0.9l0.5-0.5c0,0,0.4-0.4,0.9-0.2c0.5,0.2,0.8,0.7,0.9,0.9c-0.3,0.1-0.6,0.2-0.8,0.3c-0.5,0.1-5.2,1.6-5.2,1.6
			s-1.8,0.6-3.3,0.9c-1.4,0.3-2.2,0.5-2.6,0.5c-0.3,0-0.3,0-0.4,0c0,0,0,0,0.1-0.3c0,0,0,0,0-0.1c0,0,0,0,0,0c0-0.1,0.1-0.1,0.1-0.2
			c0,0,0,0,0-0.1c0,0,0-0.1,0-0.1c0,0,0,0,0,0c0-0.1,0-0.1,0-0.1s0,0,0-0.1c0,0,0-0.1-0.1-0.1c-0.1-0.2-0.3-0.5-0.5-0.8
			c-0.1-0.1-0.2-0.2-0.3-0.3c-0.3-0.2-0.6-0.2-0.6-0.2s-0.8-0.1-2.3,0.5c-1.4,0.6-1.9,1.1-2.2,1.6c-0.3,0.5,0,1,0,1
			c0.3,0.5,1,1.1,1,1.1l0,0c-0.5,0.5-1.6,1-1.9,1.1c0,0-0.1,0-0.1,0s0,0-0.1,0c-0.4,0.1-1.9,0.6-3.3,0.8c-0.8,0.1-1.5,0.1-2,0.2
			c0.7-0.7,1-1.4,1-1.4c0.7-1.6,0.1-3.2-0.3-3.6c-0.3-0.4-1-0.9-1-0.9c-0.2-0.2-0.8-0.4-1.5-0.1c0.1-0.4,0.2-0.9,0.4-1.3
			c0.3-0.8,1-2.1,1-2.1c0-0.1,1-1.8,1.4-2.8c0.4-1.1,0.4-2,0.4-2c0-0.1,0-0.2-0.1-0.3c0,0-0.5-0.6-0.7-0.9c0.8,0.2,1.3-0.2,1.4-0.2
			c1.1-0.8,1.7-2.2,1.7-2.3l0.9-1.9c0.1-0.1,0.1-0.3,0-0.5l-0.8-1.3c-0.1-0.1-0.2-0.2-0.3-0.2c-0.1,0-0.3-0.1-1.2,0.3
			c-0.4,0.1-0.8,0.3-1,0.4l-0.3-0.4c0,0-0.1-0.1-0.1-0.1c-0.2-0.2-0.6-0.3-1.3-0.1c-0.8,0.2-1.9,0.8-2.4,1.5
			c-0.3,0.4-0.4,0.7-0.5,0.8c-1.4,1.2-2.6,1.8-2.8,1.9c-0.5,0.1-0.8,0.3-0.8,0.3c-1.3,1.1-2.9,2.9-3.1,3.1c-0.1,0.1-0.1,0.2-0.2,0.3
			c-0.1,0.1-0.3,0.7-0.2,1c0,0,0,0,0,0.1c-0.6,0.8-1,1.2-1.2,1.5c-0.1,0-0.1,0-0.2,0c-0.2,0.1-0.7,0.3-0.8,0.4
			c-0.1,0-0.1,0.1-0.1,0.1c-0.4,0.5-1.2,1.9-1.5,2.4c-0.1,0-0.1,0.1-0.2,0.1c-0.1,0-0.1,0-0.2,0.1l-0.7,0.4c-0.1,0-0.1,0.1-0.2,0.2
			c-3.1,5-5.2,10.5-6.3,16.2c0,0.1,0,0.1,0,0.2l0,0.2l-0.2,0.4c0,0,0,0.1,0,0.1c-0.5,2.8-0.7,5.6-0.7,8.5c0,1.9,0.1,3.7,0.3,5.6
			c0,0.1,0,0.2,0.1,0.2l0.2,0.2l-0.1,0.3c0,0.1,0,0.2,0,0.2c0.9,6.6,3,12.8,6.4,18.5c0,0.1,0.1,0.1,0.1,0.1l0.1,0l0.1,0.2
			c0,0,0,0.1,0.1,0.1c9,14.9,24.8,23.8,42.2,23.8c12.4,0,24.3-4.6,33.4-13.1c9.1-8.4,14.6-19.7,15.7-32c0-0.1,0-0.2,0-0.2l-0.1-0.3
			l0.2-0.3c0-0.1,0.1-0.1,0.1-0.2c0.1-1.1,0.1-2.2,0.1-3.2C-131.4,471.9-132,467.6-133.1,463.4z M-132.9,470.1
			c0.1-0.1,0.1-0.2,0.1-0.5c0.2,1.2,0.3,2.5,0.4,3.7c-0.1,0.2-0.1,0.6-0.1,0.6s-0.1,0.4-0.1,0.4c0,0-0.1,0-0.1,0
			c-0.1-0.1-0.3-0.3-0.4-1.3c-0.2-1.4-0.1-2.8-0.1-2.8s0-0.1,0-0.2c0.1,0,0.2,0.1,0.2,0.1S-133.1,470.3-132.9,470.1z M-134,463.8
			c0.2,0.8,0.4,1.6,0.5,2.3c-0.2-1-0.5-1.9-0.7-2.6L-134,463.8z M-134.2,463.6c0.1,0.2,0.1,0.4,0.2,0.6
			C-134.1,463.9-134.1,463.7-134.2,463.6L-134.2,463.6z M-134.3,463.4L-134.3,463.4l-0.1-0.2v0L-134.3,463.4
			C-134.3,463.4-134.3,463.4-134.3,463.4z M-136.3,457.3C-136.2,457.3-136.2,457.3-136.3,457.3c0.7,1.7,1.4,3.4,1.9,5.2
			c0,0-0.1,0-0.1,0c0,0,0,0,0,0c0,0,0,0,0,0s-0.3-0.9-1-2.6c-0.6-1.5-0.8-2.2-0.8-2.3c0,0,0,0,0,0S-136.4,457.4-136.3,457.3z
			 M-134.5,463.2L-134.5,463.2L-134.5,463.2L-134.5,463.2z M-134.5,462.5L-134.5,462.5C-134.5,462.5-134.5,462.5-134.5,462.5
			C-134.5,462.5-134.5,462.5-134.5,462.5z M-141.7,448.7c0.1-0.1,0.3-0.1,0.4-0.2c0,0,0.1-0.1,0.1-0.1c0.8,1.2,1.6,2.4,2.3,3.6
			c-0.1,0-0.2,0.1,0,0.6c0.1,0.3,0.1,0.4,0.1,0.4c0,0-0.2-0.2-0.2-0.2C-139.9,451.6-141.7,448.7-141.7,448.7l-0.2-0.1L-141.7,448.7z
			 M-142.3,448.9C-142.3,448.9-142.2,448.9-142.3,448.9c0.1,0,0.1,0,0.1-0.1c0.1,0,0.1,0,0.2-0.1c0,0,0,0,0,0c0,0,0,0,0,0l0,0
			c1,1.6,2.7,4.1,2.7,4.1s0.7,0.9,0.9,0.9c0.2,0-0.1-0.7-0.1-0.7s-0.1-0.3,0-0.3c0.7,1.2,1.3,2.4,1.8,3.6l0,0c0,0-0.1,0.1-0.1,0.3
			c0,0.5,0.5,1.6,0.5,1.6s1,2.5,1.6,4.3c-0.2,0.1-0.3,0.3-0.8,0.4c-0.6,0.1-1.2,0.3-1.9,1.3c-0.2,0.3-0.3,0.6-0.3,0.9c0,0,0,0,0,0
			c0,0,0,0,0,0.1c0,0.1,0,0.2,0,0.3c0,0,0,0.1,0,0.1c0,0.1,0,0.2,0.1,0.3c0,0,0,0.1,0,0.1c0,0,0,0,0,0c0.1,0.2,0.2,0.4,0.2,0.4
			s0.3,0.6,0.5,0.9c0.2,0.3,1,2.1,0,3.5c0,0-0.5,0.6-1.5,0.8c-0.8,0.2-0.6-0.8-0.7-1.3c0,0-0.1-2.2-1.2-3.4
			c-0.9-1.1-2.6,0.9-3.5,1.5c-0.8,0.6-3.1,3-6.4,4.7l-0.1-1.6c0,0-0.1-0.9-0.5-2.2c-0.9-2.7-1.9-3.9-1.9-3.9s-0.4-0.8-1.2-1.1
			c-0.2-0.1-0.4-0.1-0.7-0.1c-1.3,0-1.4,1.2-1.4,1.2s-0.3,0.9-0.8,1.2c-0.4,0.2-1.5,0.9-2.3,0.5c-0.1-0.1-0.2-0.1-0.3-0.2
			c-0.1-0.2-0.3-0.3-0.4-0.5c-0.1-0.2-0.3-0.4-0.4-0.6c-0.4-0.7-0.6-1.4-0.7-2.1c-0.1-1.1,0.4-1.5,0.4-1.5s0.1-0.3,1.5-0.3
			c1.6,0,1.9-0.5,1.9-0.5s0.3-0.3,0.3-0.9c0-0.6-0.3-2-0.7-2.9c-0.1-0.1-0.2-0.3-0.3-0.4c-0.4-0.5-0.9-1.2-1.4-1.8l-0.9-0.2l0.9,0.2
			c0.6-0.2,1.3-0.5,2.2-0.9c1.7-0.8,2.5-1.4,3.3-1.9c0,0,1.7-1.1,2.8-1c0,0,0.2,0,0.3,0.3c0,0.3,0.1,0.8,0.2,1
			c0.1,0.3,0.7,1.7,2.6,2c0.2,0,0.5,0,0.7,0c0.1,0,0.2,0,0.3-0.1c0.1,0,0.2,0,0.3,0c0.1,0,0.3-0.1,0.4-0.1c0,0,0.1,0,0.1,0
			c0.1-0.1,0.2-0.1,0.3-0.2c0,0,0,0,0,0c0.4-0.3,0.6-0.6,0.6-0.6s0.7-1-0.5-2.2c0,0-0.9-1-0.9-1.1c0,0-0.1-0.1,0-0.2
			c0,0,0.1,0,0.1-0.1c0.2,0,1.3-0.4,2.4-0.7C-143.2,449.2-142.7,449.1-142.3,448.9z M-148.3,480.1c0.5,1,1.6,1.2,2.4,0.9
			c0.8-0.2,1.1-0.7,1.5-1.6c0.4-1,0.7-1,0.7-1s0.2-0.3,1-0.2c0.8,0.1,1,0.7,1,0.7s0.5,1.1,0.4,2.3c-0.1,1.2-0.4,1.7-0.6,2.1
			c-0.3,0.4-1.7,0.3-1.7,0.3s-2.4-0.3-2.6,2.6c-0.2,2.9,0.8,4.9,0.8,4.9c0.4,0.8,0.7,1.2,1,1.4c0.3,0.2,0.6,0.5,0.6,0.5
			s0.1,0,0.1,0.1l0,0c-1.7,1.4-2.2,1.9-3.6,2.8c0,0-1.6,1.2-3.3,2.1c-1.7,0.9-3.8,0.8-3.8,0.8s-0.5-0.1-0.3-0.5
			c0.3-0.4,0.6-1.4,0.7-1.9c0.1-0.5,0.4-1.7-0.6-2.1c-1-0.4-2.9,0.2-2.9,0.2s-4.3,1.2-6.1,3.1c-1.7,1.9-0.3,2.7-0.3,2.7
			s0.7,0.5,1.3,0.7c0.6,0.2,0.5,0.4,0.3,0.5c0,0-1.9,1.2-4.2,1.9c0,0-3.1,1-6.2,1.2c-3,0.2-4.3,0.3-4.3,0.3
			c-0.3-0.6-0.7-1.2-0.7-1.2s-0.4-0.5-0.5-1.3c-0.1-0.6-0.2-1.4,0.3-2.2c1-1.7,2.6-2.2,2.6-2.2s1.4-0.3,2.9,0c1.4,0.3,2-0.2,2-0.2
			s0.5-0.2,0.8-1c0-0.1,0.1-0.2,0.1-0.2c0-0.1,0.1-0.1,0.1-0.2c0-0.2,0.1-0.4,0.1-0.6c0.2-1.7,0-4.7-2.2-5.3
			c-2.2-0.6-3.4,0.5-3.4,0.5s-1.2,1.3-1.6,1.5c-0.4,0.2-1,0.5-1,0.5s-0.8,0.5-1.4,0.6c-0.4,0.1-1.5-1.5-1.8-2.8c0-0.1,0-0.2-0.1-0.3
			c-0.1-1.1-0.3-2-0.3-4c0-0.3,0-0.6,0-0.9c0,0,0,0,0,0c0.4,0,0.8,0,1.2-0.1c3.4-0.1,5.1-0.5,6.9-0.9c1.8-0.4,4.4-1.9,4.8-2.2
			c0.3-0.2,1-0.5,1.2-1.5c0-0.1,0-0.2,0.1-0.3c0,0,0-0.1,0-0.1c0,0,0,0,0,0c0.2-1.2-1.3-2.1-1.3-2.1s-1.2-0.6-1.4-0.9
			c-0.1-0.1-0.1-0.3-0.1-0.4c0-0.1,0.1-0.2,0.1-0.2s0.7-1.4,2.8-2.3c2.1-0.8,3.5-1.1,4.4-1.2c0.9-0.1,1.2,0.2,1.3,0.4
			c0.1,0.1,0.1,0.5,0,0.8c-0.1,0.3-0.4,1-0.6,1.3c-0.2,0.3-0.5,1.2-0.3,1.6c0.2,0.4,0.8,0.6,1.6,0.4c0.8-0.1,2.9-0.7,4.7-1.5
			c1.8-0.8,4.9-2.2,4.9-2.2s0,0,0,0l0,0c0,0,0,0,0,0l0.1-0.7c0,0,0,0,0,0l-0.1,0.7C-150,476.6-148.8,479.1-148.3,480.1z
			 M-143.3,493.3l0,0.6c0.2,0.5,0.3,1.4,0.1,2.7c-0.3,1.7-0.7,2.7-0.9,3.2c0,0.1-0.1,0.2-0.1,0.3c0,0,0,0,0,0.1
			c0,0.1-0.1,0.1-0.1,0.2c-0.1,0.1-0.1,0.2-0.3,0.3c-0.1,0.1-0.1,0.1-0.2,0.2c0,0,0,0-0.1,0.1c-0.1,0.1-0.1,0.1-0.2,0.2
			c0,0,0,0-0.1,0.1c-0.4,0.3-0.8,0.6-1.3,0.7c-1.1,0.1-2.2,0.1-3.3,1.1c0,0,0,0-0.1,0c0,0-0.1,0.1-0.1,0.1c0,0,0,0-0.1,0.1
			c0,0,0,0,0,0c-0.1,0.1-0.2,0.3-0.3,0.4c-0.9,1.3-0.7,2.8-0.7,2.8s0.1,1.1,1.3,0.8c1.2-0.3,2.4-1.2,3.3-1.9
			c0.9-0.7,0.3,0.2,0.3,0.2c-0.8,1.6-2.3,3.1-2.3,3.1s-0.5,0.5-1.7,2.1c-0.3,0.4-0.6,0.8-0.8,1.1c0,0,0,0,0,0s0,0,0,0
			c-1.2,0.6-2.9,1.5-4,1.9c0.1,0,0.1,0,0.2-0.1c-0.1,0-0.1,0-0.2,0.1c-0.6,0.2-1,0.4-1.3,0.5c0,0,0,0,0,0c-0.3,0.1-0.6,0.1-0.6,0.1
			c0,0,0,0,0,0c0,0,0,0,0,0c0,0,0,0,0,0c0.1-0.2,0.4-0.4,0.4-0.4s0.4-0.4,0.4-0.8c0,0,0-0.1-0.1-0.2c-0.2-0.1-0.6-0.2-1.4,0
			c-0.4,0.1-0.8,0.2-1.2,0.3c0,0,0,0,0,0c-0.5,0.2-0.9,0.3-1.3,0.5c0,0,0,0,0,0c0,0,0,0,0.1,0c-0.5,0.2-0.8,0.4-0.8,0.4
			s-0.8,0.4-1.4,0.8l0,0c0,0,0,0-0.1,0.1c-0.1,0.1-0.1,0.1-0.2,0.2c0,0,0,0,0,0c-0.1,0.1-0.1,0.2-0.2,0.2c0,0,0,0,0,0
			c0,0.1-0.1,0.2-0.1,0.2c0,0,0,0,0,0c0,0.1,0,0.2,0.1,0.2c0,0,0.1,0.2,0.6,0.3c0.1,0,0.1,0,0.1,0.1c0,0,0,0,0,0c0,0,0,0,0,0
			c0,0,0,0,0,0c0,0,0,0,0,0c0,0-0.1,0-0.1,0.1l0,0c-0.3,0.2-0.8,0.3-0.8,0.3c-1.3,0.4-2.3,0.6-3.6,0.9c-1.3,0.3-2.5,0.5-3.2,0.7l0,0
			l0,0c-0.1-0.3-0.2-0.6-0.3-0.9c0,0,0-0.1-0.1-0.1c-0.1-0.1-0.1-0.3-0.2-0.4c0,0,0,0,0-0.1c-0.1-0.1-0.1-0.3-0.2-0.4
			c0-0.1-0.1-0.1-0.1-0.1c0-0.1-0.1-0.1-0.1-0.1c-0.1-0.1-0.2-0.3-0.2-0.3c-0.3-0.5-0.8-0.8-2.3-0.5c-1.5,0.2-3.2,1-3.2,1
			s-1.8,1-3.2,0.8c-0.3,0-0.6-0.2-0.8-0.3c-0.6-0.5-0.8-1.3-0.8-1.6c0-0.4,0.3-0.8,1-1.1c0.7-0.3,2.4-0.6,4.8-0.8s3.3-1.7,3.3-1.7
			c0.3-0.4,0.7-1.2,0-1.9c-0.1-0.1-0.3-0.2-0.4-0.3c-0.8-0.5-1.2-0.6-1.5-0.7c-0.1,0-0.2-0.1-0.3-0.2c0,0,0,0,0,0c0,0,0,0-0.1,0
			c-0.1,0-0.1-0.1-0.2-0.1c-0.2-0.1-0.3-0.3-0.5-0.4c-0.5-0.4-0.9-0.9-1.1-1.5c0-0.1-0.1-0.2-0.1-0.3l-0.5-0.3l-0.3-0.2l0,0v0l0,0
			l0,0l0,0h0l0,0v0v0v0l0,0c0,0,0,0,0,0l0,0l0,0l0.1-0.1l-0.1,0.1l0,0c0,0,0,0,0,0l0.8,0.5c0.7-0.1,1.6-0.1,2.4-0.2
			c1.6-0.1,4.2-0.5,5.6-0.8c1.5-0.3,3.7-1,5.4-1.9c1.7-0.9,1.7-1.5,1.7-1.5s0.1-0.2,0-0.4c0-0.2-0.2-0.3-0.4-0.5
			c-0.7-0.5-1-0.4-1.6-1c-0.1-0.1-0.1-0.2-0.1-0.2c-0.2-0.6,0.7-1.3,0.7-1.3s0.6-0.8,3.8-2.1c3.3-1.3,3.8-0.8,4-0.7
			c0,0,0.1,0.1,0.1,0.2c0.1,0.2,0.1,0.5,0,0.7c-0.1,0.3-0.5,1.4-0.7,2c-0.1,0.3-0.2,0.6-0.1,0.9c0.1,0.3,0.3,0.5,0.7,0.6
			c0.9,0.2,2.1,0,3.3-0.4c2.8-1,3.6-2.2,8.2-5.5c0,0,0,0,0,0L-143.3,493.3C-143.3,493.3-143.3,493.3-143.3,493.3L-143.3,493.3
			C-143.3,493.3-143.3,493.3-143.3,493.3z M-190.4,510c0.7,0.8,1.5,1.2,1.5,1.2s0.5,0.2,0.4,0.3c0,0.2,0,0.3-0.4,0.5
			c0,0-1.3,0.8-3.9,0.8c-2.6,0-3.7,0-4.5-0.7c-0.6-0.6,0.2-1.8,0.2-1.8s0.3-0.6,0-1.4c-0.3-0.8-2.1-0.8-2.1-0.8l-2.5-0.1
			c-3-0.1-6.9-0.4-8.6-0.6c0,0,0,0,0,0v0l-0.1-0.1c0,0-1.8-3.2-1.6-4.4c0,0,0-0.6,0.8-1c0.1-0.1,0.2-0.1,0.4-0.1
			c0.8-0.2,0.7,0.5,3,0.9c0,0,1.2,0.3,1.9-0.2c0.2-0.2,0.4-0.4,0.6-0.7c0.5-1.4-0.5-3.2-0.5-3.2s-1.4-2.5-3.1-2.6h0l0,0c0,0,0,0,0,0
			c-0.9,0-0.6,0.6-2,0.9c0,0-1.8,0.2-2.4-0.9c-0.7-1.3-1-2.8-1-3.9c0,0,0-0.1,0-0.1c0-0.6,0-0.9,0.1-1c0-0.1,0-0.1,0.1-0.2
			c0-0.1,0.1-0.2,0.1-0.4c0-0.2,0.1-0.4,0.1-0.7l0,0c0.8-0.1,2-0.2,3.5-0.4c2.4-0.3,4-0.5,5.6-0.3c1.5,0.2,2,1.4,2,1.4s0,0.1,0,0.2
			c0,0.1-0.1,0.2-0.2,0.3c-0.3,0.2-0.7,0.5-0.9,0.9c0,0,0,0,0,0c0,0,0,0,0,0c0,0,0,0.1-0.1,0.1c0,0,0,0,0,0c-0.2,0.4-0.3,1,0.2,1.8
			c0.5,0.9,2.1,1.5,3.3,1.4c1.3-0.1,3.2-0.6,4.3-0.9c0.9-0.2,1.8-0.6,2.2-1.2c0.1-0.2,0.2-0.4,0.3-0.7c0.1-1-1.5-2.2-1.5-2.2
			s-0.8-0.6-0.9-0.7c0,0,0-0.1,0-0.1c0-0.1,0.1-0.1,0.1-0.1s0.9-0.2,1.3-0.4c0.4-0.2,1.5-0.6,3.2-1.2c1.8-0.5,5.4-1.2,5.4-1.2
			s2-0.3,4.5-0.5l0,0c0,0,0,0,0,0l0.3-0.4l0.1-0.1l-0.4,0.5c0,0.2,0,0.5,0,0.7c-0.1,3.7,0.7,5.6,0.7,5.6c0.5,1,1,1.8,1.7,2.2
			c0.7,0.5,1.6,0.1,1.9,0c0.3-0.2,1.1-0.5,1.9-1c0.7-0.5,0.7-0.7,1.6-1.5c0.9-0.8,2-0.6,2-0.6s1.1,0,1.7,1.3c0.6,1.2,0.5,3,0.3,3.6
			c-0.2,0.6-0.4,1-1,0.9c-0.6-0.1-1.6-0.2-1.9-0.2c-0.4,0-1.4,0-2.3,0.2c-0.9,0.2-2.1,0.9-3.3,2.8c-0.9,1.5-0.5,2.9-0.2,3.4
			c0.2,0.4,0.6,1.1,1,1.8l0.7,0.2l0,0l-0.7-0.2c-1.2,0.1-3.3,0.4-5.4,0.9c-2.5,0.6-4.9,1.1-6.6,2.2
			C-189.9,508.3-191.2,509.2-190.4,510z M-210.4,507.4l0,0.1c0,0,0,0,0,0v0l0,0v0l0,0L-210.4,507.4z M-214.2,489L-214.2,489
			L-214.2,489C-214.2,489-214.2,489-214.2,489z M-184.1,468.7c-0.2-1.3-0.2-1.7-1.4-5.7c1.6-0.2,2.8-0.4,4.2-0.7
			c1-0.2,2-0.4,3.2-0.7c0,0,2.9-0.5,3.5-1.6c0.4-0.6,1-1.5,0-2.3c0,0,0,0,0,0v0c0,0-0.1-0.2-0.8-0.3c-0.3-0.1-0.5-0.1-0.7-0.2
			c-0.3-0.1-0.6-0.2-0.9-0.4c-0.5-0.4-0.5-0.8-0.5-0.8s0-0.4,0.8-0.9c0,0,0.5-0.3,1.4-0.7c0.3-0.1,0.7-0.3,1.1-0.4
			c1.6-0.5,3.5-0.3,3.5-0.3s0.8,0.1,0.7,0.6c-0.1,0.5-0.6,1.4-0.6,1.9c0,0.3,0,0.6,0.2,0.9c0.1,0.1,0.2,0.2,0.3,0.3
			c0.1,0.1,0.3,0.2,0.4,0.2c0.6,0.2,1.3,0.3,1.7,0.3c0.3,0,0.5,0,0.5,0s1.3-0.1,3.5-0.8c1.4-0.4,2.7-0.9,3.5-1.2
			c0.5-0.2,0.8-0.3,0.8-0.3c0,0,0,0,0,0l0,0c1.9,1.9,2.2,4.1,2.2,4.1s0.3,0.9-0.3,1c-0.5,0.1-1.5,0.1-1.5,0.1s-0.4,0-1.1,0.2
			c-0.7,0.1-1.1,0.8-1.2,1.3s-0.4,1.8,0.7,3.9c1.1,2.1,2.5,2,2.5,2c1.2-0.1,1.6-0.3,2.3-0.8c0.7-0.5,1-1.5,1.1-1.7
			c0-0.2,0.1-0.4,0.3-0.4c0.2,0,0.1,0,0.5-0.1c0.4-0.1,0.7,0.2,1,0.9c0.2,0.4,1.3,2.2,1.6,3.3c0.3,1.1,0.6,2.1,0.6,3.1
			c0,0.4,0.1,0.8,0.1,1.2l0.3,0.4c0,0,0,0,0,0l0,0l-0.3-0.5c-1.6,0.8-5.2,2.5-7.5,3.4c0,0-1.8,0.7-2.5,0.7c0,0-0.2,0,0-0.2
			c0.1-0.2,0.3-0.3,0.5-0.7c0.2-0.4,0.6-1.3,0.6-2.2c0-0.9-1.1-1.8-2.6-1.7c-1.5,0.2-2.9,0.6-4.6,1.2c-1.7,0.7-3.2,2.1-3.4,3.2
			c-0.2,1.2,1.1,1.8,1.1,1.8s1.4,0.7,1.6,1.1s0,0.8,0,0.8s-0.1,0.4-0.8,0.7c-0.6,0.4-2.3,1.2-2.3,1.2s-2.1,1.2-5.3,1.4
			c0,0-2.9,0.2-4.6,0.3c0,0,0,0-0.1,0c0.1-2.2-0.2-3.8-0.6-5.1c-0.1-0.4-0.3-0.8-0.5-1.1c-0.8-1.4-2-2.1-2.6-2.4
			c-0.6-0.3-2.1-0.4-3-0.1s-1.2,0.6-1.5,1.3c-0.4,0.6-0.8,0.6-0.8,0.6s-1.3,0-1.8-1.9c0,0,0-0.1,0-0.1c-0.1-0.3-0.1-0.6-0.1-0.8
			c0-0.1,0-0.1,0-0.2c0-0.2,0-0.3,0-0.5c0-0.1,0-0.3,0-0.4c0-1.5,0.6-2,0.6-2s0.3-0.5,1.3-0.6c1-0.1,1.7,0.1,2.4,0.3
			c0.8,0.2,1.4,0.1,2.3-0.4c0.6-0.3,0.9-0.6,1.1-1.2C-184.1,469.8-184,469.3-184.1,468.7z M-167.9,440.2c0.7-0.2,2-0.6,2.3-0.7
			c0.3-0.1,1.7-0.6,2.7-0.8c1-0.2,2-0.1,2.3,0c0.1,0,0.3,0.3,0.4,0.5c0.1,0.3,0.5,1,1.1,1.3c0.5,0.3,0.9,0.4,2.1,0.3
			c1.6-0.4,1.8-1.3,1.7-1.6c-0.2-0.4-0.9-0.8-0.9-0.8s-0.9-0.5-1-0.8c0,0,0,0,0-0.1c0.5-0.1,1-0.1,1.6-0.3c0.3-0.1,0.5-0.2,0.7-0.2
			l0.3,0.1c0.5,0.4,3.4,2.7,4.4,3.4c0.2,0.1,0.5,0.1,0.6-0.1l0,0c0.1,0.1,0.3,0.2,0.3,0.3c0,0,0.6,0,0.9,0.3
			c0.4,0.3,1.5,1.3,1.8,1.9l0.1,0.4c-0.1,0.2-0.1,0.3,0,0.5c0,0.1,0.9,1.3,2,2.5c0.1,0.2,1,1.4,1.5,1.9c-0.3,0.1-0.6,0.2-1.2,0.4
			c-1.1,0.3-2.1,0.8-2.1,0.8s-0.9,0.3-0.5,1c0,0.1,0.1,0.1,0.1,0.2c0,0,0,0.1,0.1,0.1c0,0,0,0,0,0c0.3,0.5,0.6,0.7,0.6,0.7
			s0.1,0.1,0.1,0.1c0,0,0.1,0.1,0.1,0.2c0,0,0,0,0.1,0.1c0.1,0.1,0.1,0.2,0.2,0.3c0.1,0.2,0.2,0.3,0.2,0.5c0,0.5-0.2,0.7-0.7,1
			c-0.5,0.3-1,0.4-1,0.4s-1.3,0.2-1.9-0.4c-0.6-0.6-0.8-1.6-0.8-1.6s0-0.8-1.1-1.2c-1.1-0.4-2.3,0.4-2.3,0.4s-1,0.5-2.1,1.2
			c-1.1,0.7-3.1,1.6-4.4,2l-0.1,0.7v0c0,0,0,0,0,0l0,0l0,0l0,0h0h0v0h0h0v0l0,0l0.1-0.3l0.1-0.3c0,0,0,0,0,0v0
			c-0.1-0.1-0.2-0.3-0.4-0.5c-0.5-0.5-1.2-1.4-1.9-2.2c-0.7-0.8-1.3-1.5-1.5-1.9c-0.5-0.8-0.6-0.9-0.7-1.2c0-0.1,0-0.1,0-0.2
			c0-0.3,0.2-0.7,0.4-0.9c0.2-0.3,0.5-0.3,1.1-0.2c0.6,0.1,0.9,0.4,1.8,0.1c0.9-0.3,0.9-0.9,1-1.6c0.1-0.5-0.4-1.4-0.9-2.2
			c-0.2-0.2-0.3-0.5-0.5-0.6c-0.7-0.7-1.6-0.8-2.2-0.8c-0.6,0-1,0.5-1.4,0.7c-0.4,0.2-1.1,0.4-1.4,0.3c-0.2-0.1-0.4-0.1-0.6-0.3
			c-0.2-0.2-0.5-0.4-0.7-0.9c-0.3-0.6-0.6-1.2-0.8-1.5C-168.3,440.3-168.1,440.3-167.9,440.2z M-186.6,454c0.2-0.1,0.4-0.2,0.8-0.2
			l0.7,0c0.2,0,0.3,0,0.5,0l0.2,0c0.3,0,0.8,0.1,1.3-0.2c0,0,0,0,0,0c0,0,0,0,0,0c0.1,0,0.2-0.1,0.3-0.1c0.4-0.2,1.5-0.8,1.4-2.1
			c-0.1-1.2-1.1-2.7-1.9-3.2c-0.2-0.1-0.4-0.2-0.6-0.3c-0.7-0.1-1.4,0.1-1.8,0.4c-0.6,0.4-0.8,1-1.2,1.2c-0.3,0.2-0.8,0.6-1.4,0.5
			c0,0,0,0,0,0c-0.5-0.1-0.6-1.3-0.8-2.7c-0.1-0.5-0.2-1-0.2-1.3c0-0.2,0-0.3-0.1-0.4c0.6-0.1,1.7-0.3,3-0.7c2.2-0.6,3-1.2,3.1-1.2
			c0.1-0.1,0.1-0.2,0.2-0.3c0.2-0.1,0.4-0.3,0.6-0.5c0,0,0.6-0.3,0-0.8c0,0,0,0,0,0l0,0c-0.6-0.6-0.9-0.7-0.9-0.7s-0.1-0.1-0.1-0.2
			c0,0,0-0.1,0-0.1c0.1-0.1,0.1-0.2,0.2-0.3c0.3-0.4,0.8-0.6,1.4-0.8c0.3-0.1,1.1-0.2,1.9-0.1c0.6,0,0.9,0.1,1.2,0.2
			c0,0.4-0.1,0.8-0.1,1c0,0.1,0,0.5,0.4,0.8c0.1,0.2,0.2,0.4,0.4,0.5c0.1,0.1,0.7,0.4,2.4,0.2c0,0,0.7-0.1,1.8-0.5
			c2.6-0.8,4.1-1.2,4.3-1.3c0,0,0.1,0,0.1,0c0.1,0.3,0.4,0.7,0.7,1.3c0.9,1.5,2.4,2.1,3,2c0.6-0.1,1.5-0.3,1.9-0.7
			c0.4-0.4,0.8-0.4,0.8-0.4c0.8-0.1,1,0.6,1.7,1.6c0.7,1,0.3,1.7,0.3,1.7c-0.4,0.6-1,0.5-1.4,0.4c-0.3-0.1-0.4-0.1-0.8-0.2
			c-1.2-0.2-1.7,0.8-1.7,0.8c-0.9,1.4,0.2,2.4,0.2,2.4s2.4,3.2,4.2,5.1c-1.4,0.5-3.1,1.1-3.1,1.1s-2.4,0.9-4,1.1
			c-1.6,0.2-1.9,0-2.1-0.2c-0.2-0.2,0-1,0-1s0.6-1.3,0.3-2c-0.3-0.7-2.3-0.9-2.4-0.9c0,0-2.2-0.3-4.3,0.9c-1.8,1-2.1,1.6-2.1,1.6
			s-0.6,0.9,0.1,1.8c0.8,1,1.8,1.1,1.8,1.1s1,0.1,1.2,0.4c0.2,0.3,0.1,0.6,0.1,0.6s-0.3,0.9-2.1,1.3c0,0-3,0.9-8.7,1.7
			c-1.1-4.1-1.2-6.7-1.2-6.7C-187.1,454.6-187,454.2-186.6,454z M-205.4,466.4c0,0,0.5,0.1,0.4,0.2c-0.1,0.1-0.4,0.4-0.4,0.4
			s-0.1,0.1-0.6,0.6c-0.5,0.6-0.6,1.1-0.7,1.6c0,0.1,0,0.1,0,0.2c0.1,0.6,0.7,1.7,2.3,2.1c1.8,0.4,3.9-0.3,3.9-0.3s1.4-0.3,2.7-1.6
			c0.6-0.6,0.7-1.2,0.6-1.8c-0.1-0.7-0.6-1.2-0.6-1.2s-0.2-0.3-0.6-0.4c0,0-0.1,0-0.1-0.1c0,0,0,0,0-0.1c0.1-0.1,0.2-0.3,0.5-0.5
			c0.2-0.1,0.5-0.2,0.8-0.4c1-0.2,3.8-1.1,10.6-2l0,0c0,0,0.5,2,0.9,3.2c0.4,1.3,0.5,2.5,0.6,2.8c0.1,0.3,0,0.7-0.3,1
			c-0.3,0.3-1.2,0.5-1.4,0.5c-0.2,0-0.5,0-1-0.2c-0.4-0.2-0.9-0.2-0.9-0.2s-1.1-0.2-2.2,0.2c-1.1,0.3-2,1.5-2.1,2.9
			c-0.1,1.4-0.1,2.2,0.5,3.5c0.6,1.3,1.6,2,2.4,2c0.8,0,1.4-0.4,1.8-1c0.4-0.6,0.6-0.7,0.6-0.7c0.5-0.3,1.9-0.4,2.5-0.2
			c0.7,0.2,1.9,1,2.6,2.6c0.6,1.2,0.7,2.6,0.7,5.1l0.6,0.4l0,0l-0.6-0.4c-1.6,0.1-3.4,0.3-3.4,0.3s-4.1,0.6-7.9,1.7
			c-3.2,1-3.8,1.5-3.8,1.5s-0.7,0.6-0.1,1.4c0,0,0.3,0.5,1,1c0.7,0.5,1.2,1,1.1,1.3c-0.1,0.3-0.3,0.4-0.3,0.4s-0.9,0.8-4.7,1.5
			c0,0-2.4,0.5-3.2-0.3c-0.7-0.7-0.4-1.2-0.4-1.2s0-0.2,0.6-0.5c0,0,0.9-0.6,0.6-1.7c-0.3-1.1-2-2.4-3.9-2.4c0,0-2.2,0-7.8,0.7
			c0,0,0,0,0,0c0-0.2,0-0.5,0-0.8c-0.1-1.6-0.2-4-0.4-5.5c-0.2-1.4-0.6-3.6-1.9-3.7c0,0-0.6-0.1-1.6,0.8c-0.8,0.8-1.6-0.7-1.7-1.6
			c-0.1-1.1,0.1-2.2,0.4-2.7c0.1-0.1,0.2-0.2,0.3-0.3c0.3-0.2,0.8-0.2,0.9-0.2c0.1,0,0.5,0.2,1,0.5c0.4,0.2,0.8,0.3,1.2,0.1
			c0.1,0,0.2-0.1,0.3-0.2c0.4-0.4,0.9-0.8,1.1-2.5c0.2-1.7,0.2-3.4,0-5.5l0,0c0.4-0.1,0.9-0.2,1.4-0.2c0.6-0.1,1.3-0.2,2-0.3
			C-208.8,466.3-206.4,466.3-205.4,466.4z M-221.4,450.9c0.1-0.1,0.2-0.1,0.3-0.2c0.1,0,0.2-0.1,0.3-0.2c0,0,1-1.7,1.5-2.4
			c0.1-0.1,0.3-0.2,0.4-0.2c0,0,0.1,0,0.1,0c0.1,0,0.3,0,0.4-0.1c0.1,0,0.5-0.5,1.7-2c0.1-0.1,0.1-0.2,0.1-0.4c0-0.1,0-0.2-0.1-0.2
			c0-0.1,0.1-0.3,0.1-0.4c0,0,0,0,0,0c0,0,1.6-1.9,2.9-3c0,0,0.2-0.1,0.4-0.1c0,0,0.1,0,0.1,0c0.1,0,1.5-0.6,3.3-2.2
			c0.1-0.1,0.1-0.2,0.2-0.3c0,0,0.1-0.2,0.4-0.6c0.3-0.3,0.8-0.7,1.4-0.9c-0.2,0.2-0.4,0.4-0.7,0.7c-0.3,0.3-0.4,0.5-0.4,0.6
			c0,0.1,0.2,0.1,0.4,0c0.1,0,0.2-0.1,0.4-0.1c0,0,0,0,0,0c0,0,0,0,0,0c0.4-0.2,0.9-0.4,1.7-0.8l0,0c0.1,0.2,0.4,0.3,0.6,0.1
			c0,0,0.3-0.2,0.9-0.4c-0.3,0.6-0.8,1.6-1.4,2.3c0,0-0.4,0.5-0.6,0.4c-0.3-0.1-0.6-0.1-0.9-0.1c-0.3,0.1-1.1,0.3-1.9,1.4
			c-0.8,1-0.8,1.8-0.4,2c0.4,0.2,1-0.1,1.4-0.4c0.3-0.2,0.5-0.4,0.6-0.4c0,0.1,0.1,0.2,0.2,0.2c0,0.1,0,0.1,0,0.2
			c0,0.1-0.1,1.3-1.6,3.7c-0.4,0.6-0.8,1.5-1,2l0,0c0,0,0,0,0,0c-2.3,0.4-4,1-4.6,1.2c-0.6,0.2-0.6,0.1-0.6,0.1
			c-0.1-0.1,0-0.3,0.1-0.5c0.1-0.1,0.1-0.2,0.2-0.3c0.1-0.1,0.2-0.2,0.2-0.2s0.6-0.9,0.9-1.6c0.2-0.8-0.9-0.7-0.9-0.7
			c-0.7,0.1-1.2,0.5-1.8,1.2c-0.5,0.6-0.7,1.3-0.9,1.7c-0.1,0.3-0.2,0.5-0.2,0.5s-0.1,0.2-0.4,0.3c-0.4,0.2-1.2,0.4-1.2,0.4
			s-0.5,0-0.9-0.1C-221.1,450.9-221.3,450.9-221.4,450.9C-221.5,451-221.5,451-221.4,450.9z M-222.1,451.5
			C-222.1,451.5-222.1,451.5-222.1,451.5L-222.1,451.5C-222.1,451.5-222.1,451.5-222.1,451.5L-222.1,451.5l-0.2,0.2
			C-222.2,451.6-222.2,451.6-222.1,451.5C-222.1,451.5-222.1,451.5-222.1,451.5z M-225.4,457.8
			C-225.4,457.9-225.4,457.9-225.4,457.8c-0.1,0.2-0.1,0.4-0.1,0.4c0,0.1,0,0.2,0,0.2c0,0.1,0,0.1,0.1,0.1c0,0,0.1-0.1,0.1-0.1
			c0,0,0,0.2,0,0.4c-0.1,0.4-0.5,1.6-0.7,2.1c-0.2,0.5-0.3,0.8-0.5,0.8c0,0-0.1,0-0.1-0.1c0-0.1,0-0.2,0-0.2s0-0.1,0-0.1
			c0,0-0.1-0.1-0.1,0C-226.3,460.2-225.9,459-225.4,457.8z M-227,462.4L-227,462.4c0,0,0-0.1,0.1-0.2c0,0,0.1,0,0,0.1
			c0,0.3,0.2,0.3,0.2,0.3c0.1,0,0.3-0.2,0.4-0.4l0,0c0,0,0,0,0,0c0.1-0.1,0.1-0.2,0.2-0.3c0,0,0-0.1,0-0.1c0-0.1,0.1-0.2,0.1-0.3
			c0,0,0-0.1,0.1-0.2c0-0.1,0.1-0.2,0.1-0.3c0-0.1,0-0.1,0.1-0.2c0-0.1,0.1-0.2,0.1-0.3c0-0.1,0-0.1,0.1-0.2c0-0.1,0-0.1,0.1-0.2
			c0-0.1,0.1-0.3,0.1-0.4c0-0.1,0.1-0.2,0.1-0.3c0-0.1,0.1-0.2,0.1-0.3c0-0.1,0-0.2,0.1-0.2c0-0.1,0.1-0.3,0.1-0.4
			c0-0.1,0-0.1,0-0.2c0-0.1,0-0.1,0-0.2c0,0,0-0.1,0-0.1l0,0c0-0.2,0.1-0.3,0.1-0.4c0-0.1-0.1-0.2-0.1-0.1c-0.1,0.1-0.1,0-0.1,0
			c0,0,0-0.1,0-0.1c0,0,0,0,0,0c0.1-0.3,0.3-1,0.3-1c0.1-0.4,0.3-0.7,0.4-1.1c0,0,0-0.1,0-0.1c0.1-0.2,0.1-0.3,0.2-0.5c0,0,0,0,0,0
			c0.6-1.2,1.2-2.2,1.6-2.9c0.1,0,0.1,0,0.2-0.1c0,0,0.4-0.1,1.1,0.1c0.9,0.2,2-0.5,2-0.5s0,0,0,0c0,0,0,0,0,0c0,0,0.1,0,0.1-0.1
			c0,0,0,0,0,0c0,0,0.1-0.1,0.1-0.1c0,0,0,0,0.1,0c0,0,0.1-0.1,0.1-0.1c0,0,0,0,0,0c0,0,0,0,0,0c0.2-0.2,0.5-0.5,0.7-0.9l0.3-1
			c0,0,0.3-0.9,1.1-1.2c0,0,0.3-0.2,0.8-0.2c0.3,0,0.4,0.1,0.4,0.2c0,0.1,0,0.1,0,0.1s-0.1,0.2-0.6,0.9c-0.5,0.6-0.6,1.1-0.6,1.1
			s-0.2,0.4-0.1,0.7c0,0.1,0.1,0.2,0.2,0.2c0,0,0.2,0.1,0.9-0.1c0.7-0.2,2.9-0.8,4.2-1l0,0l0,0c-0.3,0.7-0.6,1.9-0.4,2.5
			c0.2,1,1.1,1,1.1,1s0.2,0,0.5-0.1c0,0,0,0,0.1,0c0.2,0.1,0.5,0.1,1-0.2c0,0,0.1,0,0.1,0c0.3,0.3,0.4,1.2,0.4,1.4
			c0,0.3,0,1.7-1,2.3c0,0-0.4,0.3-0.9,0.3c-0.6,0-0.9-0.2-0.9-0.2s-0.9-0.3-1.5,0.1c-0.6,0.3-1.3,1.1-1.8,2.1c-0.5,1-1,2.9-1,4.2
			c0,1.1,0.2,2.1,0.3,2.8l0.6,0.4c0,0,0,0,0,0v0h0v0l-0.6-0.4c0,0-2.2,0.6-4.7,0.6c-1.7,0-1.7-0.9-1.5-1.5c0-0.1,0.1-0.2,0.1-0.2
			c0,0,0,0,0-0.1c0-0.1,0.1-0.1,0.1-0.2c0,0,0-0.1,0-0.1s0.6-1.1,0.7-1.7c0,0,0.2-1.7-1.4-1.6c-1.6,0.1-1.9,1.5-1.9,1.5
			s-0.1,0.8-0.1,1.3c0,0.6,0,1.8-0.7,2.5c-0.7,0.7-1.5,0.5-1.5,0.5s-1.3-0.6-1.5-0.7c-0.2-0.1-0.4-0.1-0.6-0.1
			C-227.8,465-227.4,463.7-227,462.4z M-228.5,481.9l-0.3-0.4c-0.2-1.8-0.3-3.6-0.3-5.3c0-2.8,0.2-5.5,0.7-8.2l0.2-0.5
			c0,0,0-0.1,0-0.1c0.2,0,0.4,0.1,0.4,0.1s1.1,0.6,1.6,0.7c0.5,0.1,0.8-0.1,1.2-0.3c0.1,0,0.1-0.1,0.2-0.2c0.1,0,0.1-0.1,0.2-0.1
			c0,0,0.1-0.1,0.1-0.1c0.1-0.1,0.2-0.2,0.2-0.2c0,0,0,0,0,0c0.2-0.3,0.4-0.5,0.5-0.8c0,0,0,0,0,0.1c0.1-0.1,0.1-0.2,0.1-0.3
			c0-0.1,0-0.2,0.1-0.3c0,0,0-0.1,0-0.1c0-0.1,0-0.1,0-0.2c0,0,0,0,0,0c0-0.3,0.1-0.6,0.1-0.9c0,0,0,0,0,0c0-0.5,0-0.9,0-0.9l0,0v0
			l0,0c0,0,0-0.4,0-0.5c0,0,0,0,0,0c0-0.1,0-0.5,0.2-0.7c0.3-0.2,0.4-0.3,1.1-0.3c0.7,0,0.8,0.4,0.8,0.4s0.2,0.3,0.2,0.5
			c0,0.2-0.1,0.3-0.1,0.3s-0.4,0.6-0.5,0.9c-0.1,0.3-0.6,1.3-0.5,2.1c0,0,0,0,0,0v0c0.1,0.8,1.4,1.2,1.4,1.2s1,0.2,2.5,0l3-0.5
			l0.5-0.6l0,0l-0.5,0.6c0.1,1.1,0.2,3.2,0.1,3.9c0,0.9-0.1,2.7-1.1,3.2c0,0-0.3,0.2-0.8-0.2c-0.5-0.4-1.1-0.4-1.3-0.4
			c-0.2,0-1.2,0.2-1.6,1.3c-0.4,1.1-0.4,2.6-0.3,3.4c0.1,0.9,0.8,2.4,1.8,2.4c0,0,0.5,0,1-0.5c0.5-0.6,0.9-0.6,1.1-0.6
			c0.2,0,0.7,0.3,1,2.7c0.3,2.3,0.4,4.3,0.4,6.4l0.6,0.4c0,0,0,0,0,0c0,0,0,0,0,0l-0.6-0.4c-0.3,0-0.7,0.1-1.1,0.1
			c-1,0.1-2.4-0.1-4.1-0.6c-1.7-0.5-2.7-1.4-3-2c0,0,0,0,0-0.1c0-0.1,0-0.2,0-0.3c0,0,0-0.1,0-0.1c0-0.3,0.1-0.6,0.1-0.6
			s0.3-1.3,0.1-2.3c0-0.1,0-0.2-0.1-0.3c0,0,0-0.1,0-0.1c0,0,0-0.1,0-0.1c0,0,0,0,0-0.1c-0.2-0.8-0.6-1.4-1.4-1.9
			c-1-0.6-1.6-0.5-1.6-0.5s-0.9-0.1-0.9,1.4c0,1.5,0.2,2.2,0.2,2.2s0.2,0.5-0.1,0.6c-0.3,0.1-0.7-0.3-0.7-0.3s-0.2-0.2-0.5-0.4
			c0,0-0.1-0.1-0.1-0.1c-0.2-0.2-0.4-0.4-0.6-0.6l0.1-0.2C-228.4,482.2-228.4,482-228.5,481.9z M-226.8,490.9
			C-226.8,490.9-226.8,490.9-226.8,490.9c0.1,0,0.6,0.8,0.8,1.7c0.3,0.9,0.5,1.7,0.5,1.7s0.2,0.5,0.2,0.7
			C-225.8,493.7-226.3,492.3-226.8,490.9z M-222,501.3l-0.1-0.3c0-0.1-0.1-0.2-0.2-0.3l-0.1-0.1c-0.9-1.5-1.7-3.1-2.4-4.7
			c0,0,0,0,0,0c0,0,0-0.1,0-0.1c0,0,0-0.1,0-0.1c0-0.1,0-0.1,0-0.2c0,0,0,0,0-0.1c0,0,0,0,0,0c-0.1-0.5-0.3-1.2-0.7-2.5
			c-0.5-1.4-0.8-2.1-1-2.5c0,0,0,0,0,0c0,0,0-0.1-0.1-0.1c0,0,0,0,0,0c-0.2-0.3-0.2-0.4-0.3-0.4c0,0-0.1-0.1-0.1-0.1
			c-0.6-2.1-1.1-4.3-1.4-6.5c0.1,0.1,0.2,0.2,0.3,0.3l0,0c0.2,0.2,0.4,0.4,0.6,0.6l0,0l0,0c0,0,0,0,0,0c1,1.1,1.4,0.4,1.4,0.4
			s0,0,0-0.1c0,0,0,0,0,0c0,0,0-0.1,0-0.1c0,0,0,0,0-0.1c0-0.1,0-0.1,0-0.2c0,0,0,0,0,0c0,0,0,0,0,0c0-0.1,0-0.3,0-0.5c0,0,0,0,0,0
			c0,0,0,0,0,0c0-0.1,0-0.2,0-0.3c0-0.1,0-0.1,0-0.2c0-0.1,0-0.2-0.1-0.3c0,0,0-0.1,0-0.1c0,0,0,0,0,0c-0.2-0.8-0.2-1.3-0.1-1.6
			c0-0.1,0.1-0.1,0.1-0.2c0,0,0,0,0.1,0c0,0,0.1,0,0.2,0c0,0,0,0,0.1,0c0.6,0,2.2,0.3,2.7,1.7c0,0,0.2,0.6,0,1.4
			c-0.2,0.8-0.2,1.5,0,2.2c0.1,0.7,0.7,1.3,1.4,1.9c0.7,0.5,2.6,1.5,4.5,1.6c1.9,0.1,2.5,0,2.5,0l0.7-0.7c0,0,0,0,0,0l-0.7,0.7
			c0,0.2-0.1,0.4-0.1,0.6c-0.2,0.7-0.2,1.3,0,2.5c0.2,1.2,0.8,3.6,1.7,4.2c1.2,0.8,2,0.8,2.8,0.8c0.8-0.1,1.4-0.7,1.4-0.7
			s0.3-0.3,0.7-0.2c0.3,0.1,1.3,0.6,2,2c0.7,1.4,0.8,2.9-0.3,3.1c-1.1,0.3-3.1-0.8-3.1-0.8s-1.1-0.6-2,0.1c-0.9,0.7-0.9,1.7-0.5,3
			c0.2,0.7,0.7,1.9,1.4,3.1l0.7,0.3c0,0,0,0,0,0l-0.7-0.3c-1.1-0.2-3.1-0.6-3.9-1c-0.3-0.2-0.6-0.2-0.7-0.3c-0.1,0-0.2-0.1-0.2-0.2
			c-0.1-0.1-0.1-0.3-0.1-0.6c0.1-0.7-0.7-1.8-0.7-1.8s-1.1-1.2-2.2-2c-1-0.8-1.5-0.5-1.5-0.5s-0.5,0.2,0,1.2c0.4,1,0.8,1.3,0.8,1.3
			s0.2,0.2,0.1,0.3c-0.1,0.1-0.5-0.2-0.8-0.5c-0.1-0.1-0.7-0.6-1.2-1.1C-221.6,501.9-221.9,501.6-222,501.3z M-197.4,521.6
			c1.3,0.2,2.9,0.4,3.4,0.4l0,0c0,0.1,0,0.2-0.1,0.3c-0.1,0.2,0.1,0.4,0.3,0.5C-194.9,522.4-196.2,522-197.4,521.6z M-193.3,521.7
			L-193.3,521.7l0.1,0c-0.1-0.1-0.3-0.2-0.4-0.3c0,0,0,0,0,0c0,0,0,0,0,0c-0.1,0-0.1-0.1-0.2-0.1c-0.7-0.4-3.6-2.3-4.5-2.9
			c-0.6-0.4-1.5-1-2.2-1.3c-0.1,0-0.1,0-0.1-0.1c-0.3-0.1-0.6-0.1-0.8-0.1c-0.5,0.2-0.5,0.4-0.8,0.5c-0.2,0.1-0.5,0.1-0.9-0.1
			c0,0,0,0,0,0c-0.1-0.1-0.3-0.1-0.5-0.2c-0.1,0-0.1-0.1-0.2-0.1c-0.1,0-0.2-0.1-0.3-0.1c-0.5-0.3-1-0.6-1.7-1.3
			c-0.1-0.1-0.1-0.1-0.2-0.2c-0.2-0.1-0.3-0.3-0.5-0.5c-1.2-1.1,1.5-0.1,1.5-0.1s0.6,0.2,0.3-0.4c0-0.1-0.1-0.2-0.1-0.3
			c0-0.1-0.1-0.1-0.1-0.2c0-0.1-0.1-0.1-0.1-0.1c-0.1-0.1-0.1-0.2-0.2-0.2c0,0-0.1-0.1-0.1-0.1c-0.1-0.1-0.1-0.2-0.2-0.3
			c0-0.1-0.1-0.1-0.1-0.1c-0.1-0.1-0.2-0.2-0.2-0.3c-0.1-0.1-0.1-0.1-0.2-0.2c-0.1-0.1-0.1-0.2-0.2-0.3c-0.1-0.1-0.2-0.2-0.3-0.3
			c0-0.1-0.1-0.1-0.1-0.2c-0.1-0.1-0.2-0.2-0.3-0.4c0,0,0,0,0,0c-0.2-0.2-0.4-0.4-0.6-0.6c-0.4-0.4-0.7-0.7-1-1.1c0,0,0,0,0,0
			c-0.5-0.6-0.9-1.1-1.4-1.8l-0.5-0.6c0,0,0,0,0,0l0,0l-0.2,0.5c0.5,0.7,1,1.4,1.6,2c0,0,2.4,2.6,3.7,4.3c0,0,0.1,0.2-0.1,0
			c-0.2-0.1-1.2-0.6-1.7-0.5c-0.5,0.1-0.4,0.4-0.4,0.4s0.2,1.2,3.8,3.2c0,0,1.3,0.7,2.1,0.7c0,0,0.3,0,0.6-0.3
			c0.3-0.4,0.4-0.3,0.7-0.3c0.2,0.1,0.5,0.2,1.7,1.1c1.1,0.8,3.3,2.1,4.1,2.6c0.3,0.2,0.4,0.3,0.5,0.4c-1.6-0.1-3.4-0.3-4.3-0.5
			c-0.4-0.2-0.8-0.3-1.2-0.5c-0.2-0.1-0.4-0.3-0.7-0.4c-0.5-0.3-2-0.9-2-0.9s-0.2-0.1-0.4-0.1c-1.8-0.9-3.5-1.9-5.1-3
			c0.3,0.1,0.6,0.1,0.8,0c-0.1-0.5-0.7-1-1-1.2c-0.1-0.1-0.2-0.3-0.3-0.4c-0.5-0.4-1-0.8-1.5-1.1c-0.4-0.3-1-0.5-1.3-0.8
			c0-0.1,0.1-0.3,0-0.5c-0.3-0.9-1.5-1.9-2.3-2.3c-0.3-0.2-0.9-0.3-1.2-0.5c-0.2,0-0.4,0-0.4,0.1c-0.1,0.2,0.2,0.5,0.3,0.6
			c0.3,0.4,0.6,0.8,0.9,1.1c0.3,0.2,0.6,0.4,0.8,0.6h0.1c-0.1-0.4-0.6-0.6-0.9-0.9c-0.3-0.2-0.4-0.6-0.7-0.9c0-0.1,0-0.1,0.1-0.2
			c1,0,1.7,1,2.2,1.6c0.2,0.3,0.5,0.4,0.6,0.9c-0.1,0-0.2,0-0.3,0h-0.1c0.2,0.5,0.8,0.5,1.2,0.7c0.9,0.5,1.5,1.3,2.3,2
			c0.2,0.2,0.7,0.4,0.8,0.8c-0.5,0-0.9-0.3-1.2-0.5c0,0-0.1-0.1-0.1-0.1c-0.5-0.4-1-0.7-1.4-1.1c-0.1-0.1-0.3-0.3-0.4-0.4
			c-0.1-0.1-0.1-0.3-0.2-0.3c-0.1-0.1-0.2-0.1-0.3-0.3h-0.2c0,0.1,0,0.1,0,0.2c-3.4-2.8-6.4-6.1-8.9-9.8c0,0,0.1,0.1,0.1,0.1
			c1.1,0.9,1.4,0.8,1.5,0.8c0,0,0-0.1,0-0.1s0.1-0.4-0.3-0.8c-0.1-0.1-0.2-0.3-0.3-0.4c0-0.1-0.1-0.1-0.1-0.2
			c-0.1-0.2-0.2-0.5-0.3-0.6c0,0,0,0,0,0c0-0.1,0-0.1,0-0.1c0,0,0-0.1,0-0.1c0,0,0,0,0,0c0.1-0.3,0.3-0.3,0.3-0.3s0.1-0.1,0.6,0.3
			c0.4,0.3,1.4,1,1.9,1.6c0.5,0.6,0.5,1.1,0.5,1.1c0,0,0,0,0,0.1c0,0.2,0,0.6,0.4,1c0.5,0.6,1.7,1.6,5.6,2.2c0,0,0,0,0.1,0l0.2-0.5
			l0,0l0,0l0,0c0,0,0,0,0,0l0.5,0.6c0,0,0,0,0,0c3.4,0.5,5.3,0.5,5.3,0.5s4.5,0.2,5.7,0.2c1,0,1,0.5,1,0.6c0,0,0,0,0,0
			s-0.1,0.3-0.2,0.6c-0.1,0.2-0.3,0.6-0.3,1.1c0,0.3,0,0.6,0.2,0.8c0,0,0.6,1.4,4.2,1.5c0,0,3.2,0.3,5.4-0.7c0.7-0.3,1-0.6,1-0.9
			c0.1-0.7-0.8-1.3-0.8-1.3s-0.8-0.5-1.1-0.7c-0.1-0.1-0.2-0.2-0.2-0.3c0-0.1,0-0.2,0.1-0.3c0.1-0.2,0.3-0.3,0.5-0.5
			c0.3-0.1,1.2-0.6,5.1-1.6c3.9-1,6.3-1.1,6.3-1.1s0,0,0,0c0.4,0.9,0.7,1.4,1.2,2.1c0.6,0.7,1.6,1.2,2.8,1.6
			c1.2,0.4,0.6,1.2,0.6,1.2c-0.7,1.4-2.6,1.5-3.2,1.6c-0.6,0.1-1.8,0.2-2.9,0.4c-1.1,0.2-2.2,0.4-2.8,1.1c-0.6,0.7-0.4,1.5,0,2.3
			c0.4,0.8,1.4,1.2,2.7,1.2c1.4-0.1,2.2-0.5,3.1-0.8c0.8-0.4,2.3-0.8,2.7-0.9c0.4-0.1,1-0.4,1.4,0.2c0.5,0.7,1,1.6,1.2,2.3l0.5-0.1
			c0,0,0,0,0,0c-0.1,0-0.2,0-0.2,0.1c-0.2,0-0.2,0.1-0.2,0.1s-1.2,0.3-3.1,1c-1.9,0.7-5.7,1.4-5.7,1.4s-1.2,0.1-2,0.3
			c0.1,0,0.2,0,0.2,0s0.9-0.2,1.8-0.3c0,0-2.4,0.3-2.7,0.6c-0.1,0.1-0.1,0.2,0,0.3c0.1,0.1,0.2,0.2,0.2,0.2s0.3,0.2,1.6,0.3
			c0,0,0.4,0,0.5,0c0,0,0,0,0,0c0,0,0,0,0,0c0,0,0,0,0,0c0,0,0,0-0.1,0.1c0,0-0.1,0-0.2,0.1c-0.3,0.1-0.8,0.3-2.7,0.5
			c-1.2,0.2-1.6,0.1-1.7,0c0,0,0,0,0,0c-0.1,0-0.1-0.1-0.1-0.1s0,0,0-0.1c0,0,0-0.1,0.1-0.2c0,0,0-0.1,0-0.1c0-0.1-0.1-0.3-0.3-0.4
			c0,0-0.1,0-0.3-0.1c0,0,0,0,0,0c-0.2-0.1-0.7-0.2-1.5-0.2c-1.3,0-4,0-6.5-0.1C-193.2,521.7-193.3,521.7-193.3,521.7z
			 M-187.4,524.1c-0.8-0.1-1.7-0.2-2.5-0.4c0.5,0,0.8,0,1.3,0C-188,523.8-187.4,524-187.4,524.1
			C-187.3,524.1-187.3,524.1-187.4,524.1z M-177.6,524.4c0.7-0.1,1.4-0.1,1.9-0.2c0.2,0,0.3,0,0.4,0
			C-176.1,524.3-176.8,524.4-177.6,524.4z M-174.1,524.1c-0.1,0-0.2-0.1-0.5-0.1c-0.3,0-0.6,0-0.8,0c-0.4,0-0.9,0-1.4,0.1
			c-0.3,0-0.7,0.1-0.9,0.2c-0.1,0-0.2,0-0.3,0c-0.6,0.1-0.9,0.2-1,0.2c-0.5,0-1.1,0-1.6,0c-1.9,0-3.8-0.1-5.7-0.3
			c0.1-0.1-0.1-0.1-0.2-0.2c0,0-0.1,0-0.1,0s-0.1,0-0.3-0.1c0,0,0,0,0,0c0,0,0,0-0.1,0c0,0,0,0,0,0c-0.1,0-0.2-0.1-0.4-0.1
			c0,0,0,0,0,0c-0.1,0-0.2-0.1-0.4-0.1c0,0,0,0,0,0c-0.3-0.1-0.6-0.1-1-0.2c0,0,0,0,0,0c-0.2,0-0.4-0.1-0.7-0.1c0,0-0.8-0.1-1.4,0
			c0,0-0.1,0-0.1,0c0,0,0,0,0,0c0,0,0,0,0,0c-0.5-0.1-1-0.2-1.5-0.3c-0.3-0.1-0.7-0.3-0.5-0.5c0.1-0.2,0.1-0.3,0.1-0.5
			c1.1,0.1,2.4,0.1,2.4,0.1s2.8,0.1,4.4,0c0.7-0.1,0.5,0.3,0.5,0.3s-0.2,0.3,0.2,0.5c0,0,0.7,0.4,3.2,0.2c2.5-0.3,3-0.8,3-0.8
			s0.3-0.3-0.3-0.4c0,0-0.1,0-0.1,0c0,0,0,0,0,0c0,0,0,0,0,0c0,0,0,0,0,0c0,0,0,0,0,0c0,0,0,0,0,0c0,0,0,0,0,0c0,0,0,0,0,0
			c0,0,0,0,0,0c0,0,0,0,0,0c0,0,0,0,0,0c0,0,0,0,0,0c0,0,0,0,0,0c0,0,0,0,0,0c0,0,0,0,0,0c0,0,0,0,0,0c0,0,0,0,0,0c0,0,0,0,0,0
			c0,0,0,0,0,0c0,0,0,0,0,0c0,0,0,0,0,0c0,0,0,0,0,0c0,0,0,0,0,0c0,0,0,0,0,0c0,0,0,0,0,0c0,0,0,0,0,0c0,0,0,0,0,0s0,0,0,0
			c0,0-0.1,0-0.1,0c0,0,0,0,0,0c0,0,0,0,0,0c0,0,0,0,0,0c0,0,0,0,0,0c0,0,0,0,0,0c0,0,0,0,0,0c0,0,0,0,0,0c0,0,0,0,0,0c0,0,0,0,0,0
			c0,0,0,0,0,0c0,0,0,0,0,0c0,0,0,0,0,0c0,0,0,0,0,0c0,0,0,0,0,0c0,0,0,0,0,0c0,0,0,0,0,0c0,0,0,0,0,0c0,0,0,0,0,0c0,0,0,0,0,0
			c0,0,0,0,0,0c0,0,0,0,0,0c0,0,0,0,0,0c0,0,0,0-0.1,0c-0.1,0-0.3,0-0.4-0.1l-0.2,0c-0.2-0.1-0.3-0.1,0-0.2c0.4-0.1,1.1-0.2,1.1-0.2
			s2.2-0.3,3.9-0.7c0,0,1.9-0.4,3.7-1.1c0.7-0.3,1.3-0.4,1.8-0.6l0.4-0.6c0,0,0,0,0,0l-0.4,0.6c0.1,0.6-0.1,0.8-0.2,1.1
			c-0.1,0.2-0.6,0.6-0.4,1.1c0.2,0.6,1.6,0.4,2.4,0.1c0.8-0.2,1.5-0.5,2-0.7c0.5-0.2,0.7,0.1,0.7,0.1s0.2,0.2-0.6,0.6
			c-0.2,0.1-0.4,0.2-0.6,0.2c0,0-0.1,0-0.1,0c-0.2,0.1-0.4,0.1-0.5,0.1c0,0-0.1,0-0.1,0c-0.2,0-0.3,0.1-0.5,0.1c-0.1,0-0.1,0-0.2,0
			c-0.1,0-0.2,0-0.4,0.1c-0.1,0-0.1,0-0.2,0c-0.1,0-0.3,0-0.4,0c-0.1,0-0.2,0-0.2,0c0,0-0.1,0-0.1,0c0,0,0,0-0.1,0c0,0-0.1,0-0.1,0
			c0,0-0.1,0-0.1,0c0,0,0,0,0,0c0,0-0.1,0-0.1,0c0,0,0,0,0,0c-0.2,0-0.4,0.1-0.8,0.2c-1,0.4-0.1,0.7-0.1,0.7c0.5,0.1,1,0.2,1.4,0.3
			C-171.1,523.6-172.6,523.9-174.1,524.1z M-154.4,516.6C-154.4,516.6-154.4,516.6-154.4,516.6c-4.4,2.9-9.2,5.1-14.3,6.4
			c-0.5,0-0.8-0.1-0.9-0.1c-0.4-0.1-0.7-0.1-0.8-0.3c0,0,0,0,0-0.1c0-0.1,0.5-0.1,0.5-0.1h0c0,0,0.1,0,0.2,0
			c0.4-0.1,1.4-0.2,2.3-0.5c0.2,0,0.4-0.1,0.5-0.2c1.5-0.5,1.8-0.9,1.8-1.3c0-0.1,0-0.1-0.1-0.1c0,0,0,0,0,0c0,0-0.1,0-0.1-0.1
			c0,0,0,0-0.1,0c-0.1,0-0.1,0-0.2,0c0,0,0,0,0,0c-0.1,0-0.2,0-0.3,0c0,0,0,0,0,0c0,0,0,0,0,0c-0.3,0-0.6,0.1-0.9,0.2
			c-0.9,0.3-2.2,0.7-2.5,0.8c-0.1,0-0.2,0-0.2,0c0,0,0,0,0,0c-0.1,0-0.2,0-0.3,0c0,0,0,0,0,0c-0.1,0-0.2-0.1-0.2-0.1c0,0,0,0,0,0
			c-0.1-0.2-0.2-0.5,0.1-0.9c0.3-0.4,0.4-0.7,0.4-0.7c0-0.2,0-0.3,0-0.5c0,0,0-0.1,0-0.1c0-0.1,0-0.1,0-0.2c0.1,0,0.1,0,0.1,0
			s2.2-0.5,3.1-0.7c0.9-0.2,3-0.6,3.9-1c0.9-0.4,1.3-0.8,1.4-1c0.1-0.3-0.4-0.4-0.4-0.4s-0.6-0.1-0.5-0.3c0.1-0.2,0.3-0.4,1.2-0.8
			c0.9-0.4,2-0.8,3.1-1.1c1.1-0.3,0.7,0.2,0.7,0.2s-0.7,0.7-0.8,0.9c-0.1,0.3,0,0.3,0.1,0.3c0.1,0,0.6,0,1-0.1
			c0.4-0.1,3.3-1.2,5.1-2.2c0,0,0.1-0.1,0.1-0.1l0.4-0.6l0,0c0,0,0,0,0,0c0,0,0,0.1,0,0.1c-0.5,0.9-0.8,1.4-0.8,1.4
			s-0.3,0.5-0.3,0.8c0,0.3-0.2,0.3-0.2,0.3s-0.5,0-1.1,0.3c0,0,0,0-0.1,0c0,0,0,0-0.1,0c-0.2,0.1-0.4,0.2-0.7,0.4
			c0,0-0.1,0.1-0.1,0.1c0,0-0.1,0-0.1,0.1c-0.7,0.6-1.2,1.1-1.5,1.4c0,0,0,0,0,0c-0.1,0.2-0.2,0.3-0.2,0.3s-0.4,0.5,0,0.5
			s1.3-0.5,1.7-0.8C-154.2,516.3-154.4,516.6-154.4,516.6z M-145.9,509.4c-0.6,0.7-0.9,1-0.9,1s-0.1,0.1-0.2,0.2l0,0c0,0,0,0,0,0h0
			c-0.1,0.1-0.1,0.2-0.2,0.3c-2,1.9-4.2,3.7-6.5,5.3c0-0.1,0.1-0.1,0-0.2h0c0,0,0,0,0,0c-0.1-0.1-0.6,0.2-0.6,0.2s-0.1,0.1-0.2,0.1
			l0,0c-0.1,0.1-0.3,0.2-0.5,0.3c-0.1,0-0.1,0.1-0.2,0.1c0,0-0.1,0-0.1,0c-0.1,0-0.1,0-0.2,0c-0.4,0,0.5-0.8,0.5-0.8
			s0.5-0.5,1.1-0.9c0.2-0.1,0.4-0.2,0.6-0.2c0.8-0.1,1-0.4,1.4-0.7c0.1-0.1,0.2-0.2,0.3-0.4c0.2-0.3,0.4-0.8,1-1.8
			c0-0.1,0.1-0.1,0.1-0.2h0c1.1-0.6,1.4-0.8,1.7-0.9c1.1-0.7,2.5-1.5,2.8-1.8C-146,509.2-145.3,508.7-145.9,509.4z M-139.1,500.6
			c0.3-0.6,0.5-1.3,0.8-2c0.3-0.7,0.7-1.3,0.7-2.2c0,0-0.1-0.1-0.1-0.2h-0.2c-0.2,0.2-0.5,0.3-0.8,0.5c-0.4,0.3-0.7,0.6-1.1,0.9
			c-0.2,0.1-0.4,0.2-0.5,0.4c-0.2,0.3-0.2,0.8-0.4,1v0.2c0.3-0.1,0.4-0.5,0.7-0.6c0.3-0.2,0.5-0.5,0.8-0.7c0.2-0.1,0.4-0.2,0.6-0.3
			c0.1,0,0.1,0,0.2,0.1c0,1-0.5,1.6-0.8,2.3c-0.1,0.2-0.1,0.5-0.3,0.7c-0.1,0.1-0.2,0.1-0.3,0.1c-0.3,0.3-0.5,0.6-0.8,0.8
			c-0.2,0.3-0.4,0.8-0.6,1.1c0,0.1,0,0.2,0,0.3c0,0,0.1,0.1,0.2,0.1c0.4-0.4,0.8-0.7,1.2-1.2c-1.6,2.6-3.5,5-5.6,7.2
			c0-0.1,0.1-0.1,0.1-0.2c0,0,0,0,0-0.1c0.3-0.4,0.1-0.4,0.1-0.4s-0.1,0-0.2,0.1c0,0-0.1,0-0.1,0c0,0,0,0,0,0v0
			c-0.1,0.1-0.3,0.2-0.6,0.3c-0.8,0.5-1.3,0.8-1.3,0.8s-1.6,0.9-2.7,1.6c0,0,0,0,0,0c0,0,0,0,0,0c0,0,0,0,0,0c0,0,0,0,0,0
			c0.8-1.2,1.6-2.2,2.3-3c0.8-0.9,1.8-2.4,1.8-2.4s0.6-1.1,0.6-1.5c0-0.1,0-0.1,0-0.2c0,0,0,0-0.1,0c0,0,0,0-0.1,0
			c-0.2,0-0.7,0.2-1.5,0.8c-0.7,0.5-1.2,0.9-1.7,1.1c0,0,0,0-0.1,0c0,0,0,0,0.1,0c-0.3,0.1-0.5,0.2-0.8,0.2
			c-0.6,0.1-0.8-0.3-0.9-0.7c0-0.2,0-0.5,0-0.6c0.1-0.4,0.3-1.5,1-1.9c0.7-0.4,1.7-0.4,2.4-0.5c0.7-0.1,1-0.3,1-0.3s1.2-0.7,1.9-2
			c0.8-1.2,1.4-3.2,1.5-5.2c0,0,0,0,0-0.1c0-0.2,0-0.4,0-0.5c0-0.1,0-0.1,0-0.2c0-0.1,0-0.3-0.1-0.4c0-0.1,0-0.1,0-0.2
			c0-0.1-0.1-0.3-0.1-0.4l0,0c1.9-1.5,3.7-3.4,3.7-3.4s1.2-1.2,1.8-2.3c0-0.1,0.1-0.1,0.1-0.2c0,0,0,0,0,0c0,0,0-0.1,0.1-0.1
			c0,0,0,0,0,0c0,0,0,0,0,0c0,0,0,0,0,0c0,0,0,0,0,0.1c0,0,0,0,0,0c0,0,0,0,0,0s-0.5,1.4-0.3,2.1c0,0,0,0,0,0c0,0,0,0,0,0
			c0,0,0,0,0,0c0,0.1,0,0.3,0.1,0.4c0,0,0,0.1,0,0.1c0,0.1,0.1,0.3,0.2,0.4c0,0,0,0,0,0c0,0,0,0,0.1,0c0.4,0.3,1.4-0.8,1.4-0.8
			s0.7-0.8,0.9-2c0.2-1.1,0.3-1.7,0.2-1.9c0-0.2,0-0.2,0-0.2s-0.2-0.4-0.1-0.8c0,0,0-0.1,0.1-0.2c0.2-0.7,1.1-2.7,1.8-3.6
			C-133.3,488.2-135.6,494.8-139.1,500.6z M-140,501.4c0,0.4-0.3,0.7-0.6,0.9v0h0C-140.5,501.8-140.2,501.7-140,501.4L-140,501.4z
			 M-137.1,488.3c0,0.2-0.1,0.3-0.1,0.3s0,0,0,0c0,0,0,0,0,0S-137.1,488.4-137.1,488.3z M-132.5,479.3l-0.2,0.4
			c-0.1,0.1-0.1,0.3,0,0.4l0.1,0.3c0,0,0,0,0,0c0,0,0,0,0,0c0,0,0,0,0,0.1c-0.2,0.3-0.4,0.6-0.7,1.1c-1.2,2-1.4,3.6-1.4,3.6
			s-0.1,0.6-0.1,1c0,0.1,0,0.1,0,0.2c0,0,0,0,0,0c0,0.1,0,0.1,0.1,0.1c0,0,0,0,0,0c0,0,0,0,0,0c0,0.1,0,0.1,0.1,0.1c0,0,0,0,0,0
			c0,0,0,0.1,0,0.1c0,0,0,0.2-0.1,0.5c0,0.1,0,0.1,0,0.2c0,0,0,0.1,0,0.1c0,0.1-0.1,0.2-0.1,0.3c0,0,0,0.1,0,0.1
			c0,0.1-0.1,0.3-0.2,0.4c0,0,0,0,0,0.1c-0.4,0.8-0.8,1-0.8,1s-0.7,0.5-0.8,0.1c-0.1-0.4-0.1-0.7,0-0.9c0-0.2,0.3-1.5,0.2-2
			c0-0.5-0.5-0.1-0.5-0.1s-0.1,0.1-0.3,0.4c-0.2,0.2-1.2,1.6-1.6,2c-0.9,1.1-1.8,1.9-4.1,3.8c0,0,0,0,0,0c0,0,0,0,0,0
			c-0.1-0.1-0.2-0.3-0.3-0.4c-0.1-0.1-0.2-0.2-0.2-0.3c-0.3-0.4-0.8-0.2-1.4-1.7c-0.6-1.5-0.7-2.7-0.7-3.6c0-0.1,0-0.2,0-0.3
			c0.1-0.9,0.3-1.2,0.7-1.5c0.4-0.4,2.1-0.2,2.1-0.2s0.9,0.2,1.6-1.1c0.6-0.9,0.7-2.3,0.6-3.4c0-0.4-0.1-0.7-0.1-1
			c-0.2-1-0.6-1.9-2-2.1c-1.4-0.1-2,1.6-2,1.6s-0.3,0.7-0.6,1c-0.3,0.4-1.1,0.3-1.1,0.3c-0.4,0-0.8,0.1-1.2-0.8
			c-0.4-0.9-1.4-3.1-1.4-3.1c-0.3-0.8-0.5-1.4-0.7-2l-0.7-0.3l0,0l0.7,0.3c1-0.5,2.6-1.5,3.8-2.5c1.8-1.5,3.5-3.1,4-3.5
			c0.4-0.4,0.9-0.7,1.2-0.7c0.4,0,0.7,0.3,0.9,1.4c0.2,1.1,0.3,2,0.4,2.5c0.1,0.5,0.3,1.1,0.9,1.2c0.6,0.1,1.4-0.4,1.8-0.7
			c0.1-0.1,0.2-0.2,0.3-0.3c0,0,0,0,0,0c0-0.1,0.1-0.1,0.1-0.2c0.2-0.4,0.5-1,0.4-1.8c0,0,0.1-1.5-0.7-3c0,0-0.3-0.6-0.5-0.7
			c-0.1-0.1-0.1-0.2,0-0.5c0-0.1,0.1-0.1,0.1-0.2c0.2-0.3,0.4-0.6,0.9-0.9c0.4-0.2,0.8-0.3,1.1-0.4c0,0,0.3-0.1,0.6-0.2l0,0
			c0,0,0,0,0,0c0,0,0,0,0,0c0.5,1.6,1.1,4.2,1.1,4.2s0.2,0.8,0.2,1.1c0,0.4-0.1,0.4-0.2,0.2c-0.2-0.2-0.3-0.1-0.3-0.1
			s-0.2,0.1-0.2,0.7c0,0.7,0.1,2.2,0.2,3.5c0.1,1.4,0.6,2,0.6,2s0.4,0.6,0.5-0.6c0,0,0-0.1,0-0.1c0,0.5,0.1,1.1,0.1,1.6
			C-132.4,477.2-132.4,478.2-132.5,479.3z"/>
		<path class="st0" d="M-207.1,511.5c0.1,0.1,0.1,0.1,0.2,0.2c0,0,0,0,0,0L-207.1,511.5z"/>
		<path class="st0" d="M-214.6,466.6L-214.6,466.6L-214.6,466.6z"/>
		<polygon class="st0" points="-177.2,505.4 -177.2,505.4 -177.2,505.4 		"/>
		<path class="st0" d="M-156.2,503.6c-1.1-0.3-2,0.3-3.2,0.2c-0.1-0.1-0.2-0.2-0.3-0.3c-0.8,0-1.7,1.8-0.9,2.3
			c0.4,0.3,1.7,0.1,2.2,0c0.3-0.1,0.8-0.1,1,0c0.3,0.2,0.3,1.1,0.2,1.6c-0.1,0.9-0.3,1.9-0.4,2.8c-0.1,0.6-0.2,1.1-0.3,1.7
			c0.6,0,1.1-0.6,1.3-1c0.1-0.2,0-0.5,0.1-0.8c0.2-0.8,0.2-1.7,0.4-2.6c0.1-0.5,0-1.1,0.1-1.6c0.1-0.4,0.1-1.6,0-2
			C-155.9,503.9-156.1,503.7-156.2,503.6z"/>
		<path class="st0" d="M-209.8,440L-209.8,440l-0.2-0.1c-0.2,0.1-0.6,0.2-0.9,0.3c0,0.1,0,0.1,0.1,0.2c-0.1,0.4-0.6,0.6-0.8,0.9
			c-0.4,0.5-0.8,0.9-1.1,1.4c-0.1,0.2-0.2,0.4-0.3,0.5c-0.2,0.2-0.9,0.2-1.1,0.4h-0.1c0.1-0.3,0.9-1.3,1.1-1.6v0
			c-0.4,0.1-0.7,0.3-0.9,0.5c0,0.1,0,0.1,0.1,0.1c-0.1,0.2-0.3,0.4-0.5,0.6c-0.2,0.3-0.3,0.6-0.5,0.8c0,0,0,0.1,0,0.1
			c0.2,0,1.2-0.3,1.4-0.5h0.1c-0.2,0.5-0.8,1.1-1,1.5c-0.1,0.2-0.2,0.5-0.5,0.7c0,0,0,0,0,0c0.1,0.1,0.8-0.1,0.9-0.2
			c0.1,0,0.1,0,0.1,0c0,0.1-0.5,0.9-0.6,1.1v0c0.2,0,0.5-0.1,0.6-0.2c0.4-0.3,0.5-0.9,0.7-1.3c0-0.1,0-0.1,0-0.2
			c-0.2,0-0.7,0-0.8,0.2h0c0.1-0.5,0.8-1.3,1.1-1.7c0.4-0.6,0.8-1.2,1.3-1.8c0.2-0.3,0.6-0.6,0.8-0.9
			C-210.5,440.7-210.2,440.2-209.8,440z"/>
		<path class="st0" d="M-199.4,503.4c-0.1,0.1,0,0.3-0.1,0.5c-0.3,0.8-0.4,1,0.1,1.7c0.2,0,0.3,0,0.4-0.1
			C-198.9,504.8-198.8,503.7-199.4,503.4z"/>
		<path class="st0" d="M-197.8,502.7c-0.2-0.3-0.5-0.3-0.7-0.5c-0.1,0,0,0-0.1,0c0.5-0.3,1-0.5,1.5-0.8c0.1,0.2,0.8,0.8,1,0.6
			c0,0,0.1,0,0.1,0c0-0.2,0-0.4,0-0.6c-0.5-0.5-1.2-0.9-2-1v0h0c0.1,0.3,0.4,0.5,0.6,0.6v0.1c-0.4,0.1-0.8,0.3-1.2,0.4
			c-0.3,0.1-0.6,0.1-0.8,0.2h-0.1c0.2-0.5,0.7-0.8,1-1.2c0.6-0.7,1-1.7,1.9-2.1c0-0.4-1-1.1-1.4-0.8c-0.1,0,0,0-0.1,0.1
			c-0.1,0.1,0.1,0.3,0.1,0.5c-0.1,0.3-0.8,1.7-1,1.8v0c-0.4-0.1-0.7-0.5-1.1-0.7c0.1-0.4,0.4-0.6,0.5-0.9c0.4-0.7,0.8-1.3,1.4-1.7
			c0-0.5-0.8-1-1.4-1c0,0.2,0.1,0.4,0.1,0.6c-0.1,0.6-0.4,1.2-0.6,1.8c-0.1,0.3-0.2,0.8-0.5,1c-0.1,0-0.5,0-0.6-0.1
			c-0.1,0-0.3,0-0.4,0v0.1c0.6,0.6,1.3,0.8,2.2,1.2c-0.1,0.6-0.8,1-1.1,1.5c-0.2,0-0.3,0-0.4-0.1c-0.1,0-0.1,0-0.2,0
			c0,0.6,0.5,1,0.9,1.1c0.3-0.4,0.7-0.5,1.2-0.7c0.4,0.4,0.6,1.1,0.7,1.8c0.1,0.3,0,0.7,0,0.9c0.1,0.5,0.4,0.6,0.6,1h0.3
			c0.2-0.9-0.2-1.8-0.5-2.5C-197.6,503.3-197.7,503-197.8,502.7z"/>
		<path class="st0" d="M-188.2,519.4c0.3,0.1,0.5,0.4,0.8,0.5c0.7,0.4,1.9,0.7,3,0.5c0.5-0.1,1.1-0.1,1.2-0.6
			c0.2-0.3-0.1-0.6-0.1-0.8c-0.4-0.6-0.8-1-1.4-1.4c-1.9-1.3-4.8-2.7-8.1-2.6c-0.2,0.1-0.5,0-0.7,0.1c-0.3,0.1-0.4,0.2-0.6,0.3
			c0,0.9,1.4,1.4,2.2,1.6c0.5,0.1,0.9-0.1,1.1-0.2c0.2-0.8-0.7-0.9-1.2-1.3h-0.1v0c2.9-0.1,5.1,0.7,6.7,1.9c0.4,0.3,0.9,0.7,1.1,1.2
			c0.1,0.2,0.1,0.5,0,0.6c-0.2,0.4-0.7,0.4-1.1,0.5c-1.1,0.3-2.6-0.4-3.1-0.9c-0.1,0.2,0,0.5-0.1,0.6c-0.2,0.5-0.8,0.3-1.3,0.5
			c-0.9,0.2-2.3-0.3-2.8-0.6c-0.1-0.1-0.2-0.3-0.4-0.4c0-0.1,0-0.1,0-0.2c0.1-0.1,0.2-0.2,0.2-0.3c1.1-0.1,1.6,0,2.3,0.6
			c0,0.1,0,0.1,0,0.1c-0.1,0.1-0.2,0.2-0.5,0.2v0.1c0.4,0,0.6-0.1,0.8-0.2c0-0.1,0-0.2,0-0.2c-0.1-0.1-0.2-0.3-0.4-0.4
			c-0.6-0.4-1.9-0.6-2.6-0.1c-0.1,0.5,0.2,0.8,0.5,1.1c0.6,0.5,1.1,0.7,2,1c0.3,0.1,0.5,0,0.8,0.1c0.3,0.1,0.7,0.1,1,0
			C-188.3,520.5-187.7,520-188.2,519.4L-188.2,519.4L-188.2,519.4z M-191.7,515.8c0.1,0.1,0.2,0.3,0.3,0.4c0,0.1,0,0.1,0,0.2
			c-0.2,0.7-1.6,0.2-2-0.1c-0.1-0.1-0.1-0.2-0.2-0.3c0-0.1,0-0.1,0-0.1c0.1-0.3,0.4-0.2,0.6-0.3C-192.4,515.5-192,515.6-191.7,515.8
			z"/>
		<path class="st0" d="M-178.4,523.3c0,0,0-0.1,0-0.1c-0.9,0-1.9-0.1-2.8-0.1c-0.1,0.1-0.3,0-0.5,0.1c-0.2,0.1-0.4,0.1-0.6,0.2
			c0,0.1,0,0,0,0.1c0.2,0.2,1.6,0.2,1.8,0h0.1v-0.1c-0.4-0.1-1.1,0.2-1.4,0h0v0c1-0.1,2.1,0,3.2,0c-0.1,0.1-0.3,0-0.4,0.1
			c0,0-0.1,0-0.1,0v0.1c0.2,0,0.5,0.1,0.7,0.1c0,0,0,0,0,0c-0.3,0.2-1.2,0.1-1.5,0v-0.1c-0.2-0.1-0.9,0.1-1.1,0.1
			c-0.1,0-0.3,0-0.3,0c-0.2,0-0.2,0-0.3,0.1c0,0.1,0,0.1,0.1,0.2c0.2,0.1,0.7,0.1,0.9,0.1v0h0v0c-0.1-0.1-0.5,0-0.7-0.1h-0.1
			c0.1-0.1,1.4-0.3,1.6-0.1c0.1,0,0,0,0.1,0c-0.2,0-0.4,0.1-0.6,0.1c0,0.1,0,0,0,0.1c0.1,0,0.2,0,0.3,0c0,0.1-0.1,0.1-0.1,0.2
			c0,0,0,0,0,0.1c0.5,0,1-0.1,1.4-0.1c0.3-0.1,0.6,0,0.8-0.1h0.3V524c-0.5,0-1.8-0.1-2.1,0.2h-0.1c0,0,0,0,0,0
			c0.1-0.2,0.5-0.1,0.7-0.1c0.4-0.1,1.1-0.3,1.5,0c0.1,0.1,0,0,0,0.1c0.1,0,0.2,0,0.2,0h0.3V524c-0.3-0.1-0.9-0.2-1.1-0.4
			C-178.2,523.4-178.1,523.3-178.4,523.3z"/>
		<path class="st0" d="M-137.2,493.8c-0.1,0.1-0.3,0.2-0.5,0.3c-0.5,0.3-1,0.9-1.3,1.4c-0.3,0.4-0.5,0.8-0.8,1.2
			c-0.1,0.2-0.1,0.4-0.3,0.5v0.1c0.3-0.1,0.5-0.3,0.8-0.4c0.6-0.4,1.2-0.7,1.8-1.2c0.3-0.2,0.5-0.5,0.8-0.7c0-0.5,0.1-0.8-0.1-1.1
			C-136.9,493.8-137.1,493.8-137.2,493.8z M-137.7,495.1c-0.2,0.2-0.4,0.4-0.7,0.6c-0.2,0.1-0.4,0.2-0.6,0.4h0
			c0.1-0.4,0.8-1.1,1.1-1.3c0.2-0.1,0.4-0.1,0.5-0.3h0.1c0,0,0,0,0.1,0.1C-137.2,494.9-137.5,495-137.7,495.1z"/>
		<path class="st0" d="M-156.6,516.2h-0.4c-0.2,0.2-0.7,0.2-0.9,0.4c-0.3,0.1-0.6,0.3-0.8,0.5c-0.2,0.1-0.3,0.4-0.5,0.6
			c0,0.2,0,0.2,0.2,0.3c0,0,0,0,0.1,0c0,0,0.1-0.1,0.1-0.1c0,0,0-0.1,0-0.2c0.4-0.4,0.6-0.6,1.2-0.8c0.1-0.1,0.4-0.2,0.6-0.1h0.1
			c0,0.4-0.9,1.5-1.1,1.7v0.1c0.7-0.2,1.2-1.6,1.6-2.1C-156.5,516.3-156.5,516.3-156.6,516.2L-156.6,516.2z"/>
		<path class="st0" d="M-138,477.7c0.1,0.2,0.2,0.6,0.4,0.7c0.1,0.1,0.1,0,0.2,0.1c1.3,0.1,1.8-2.1,1.3-3.3
			c-0.1-0.2-0.5-0.8-0.9-0.6h-0.1c0-0.1,0,0,0-0.1c0-0.2,0-0.2-0.1-0.3c-0.1,0-0.1,0-0.2,0c0,0,0,0-0.1,0c0,0.2,0.1,0.2,0.1,0.5
			C-137.9,475.2-138.4,476.5-138,477.7z M-137.6,475.7c0.1-0.2,0.3-0.3,0.4-0.5c0.1,0,0.1,0,0.1,0c0.3,0,0.4,0.1,0.5,0.2
			c0.3,0.7,0.3,1.9-0.1,2.4c-0.1,0.1-0.2,0.1-0.3,0.2C-137.8,477.8-137.9,476.4-137.6,475.7z"/>
		<path class="st0" d="M-134.9,477.4v-0.6c-0.1-0.4-0.1-1-0.1-1.4c-0.2-0.8,0-1.8-0.3-2.5c-0.2,0-0.4-0.1-0.6-0.1
			c-0.1,0.1-0.2,0.1-0.2,0.3c0.1,0.3,0.5,0.4,0.6,0.8c0,0.2,0,0.3,0,0.5c0.1,0.5,0.1,1.2,0.2,1.8v0.5c0.1,0.3,0.2,1,0.1,1.2
			c-0.1,0.4-0.6,0.7-0.8,1c-0.7,0.7-1.6,1.6-2.8,1.8c0,0.1,0,0,0,0.1c0,0.5,0.5,0.4,0.8,0.6c0.1,0,0.2,0,0.2,0
			c0.1-0.1,0.2-0.2,0.3-0.3c0.2-0.2,0.5-0.4,0.7-0.6h0c0,1.2,0,2.5,0,3.6h0.1c0.3-1.1,0.2-2.5,0.2-3.9c0.5-0.5,0.8-1.1,1.3-1.6v-0.1
			h0c0,1.2,0,2.4,0,3.6c0,0.4-0.1,1.3,0,1.5v0.2h0.1c0.1-0.4,0.1-1,0.2-1.4v-0.6c0.1-0.5,0.1-1.5,0-2
			C-134.9,478.8-134.8,478-134.9,477.4z"/>
		<path class="st0" d="M-159.6,519c-0.2,0.2-0.8,0.2-1,0.4h0c0.1-0.1,0.3-0.2,0.4-0.3c0.1-0.1,0.1-0.2,0.2-0.3c0-0.1,0-0.1,0-0.1
			v-0.1c-1.1-0.2-3,0.8-3.5,1.3c-0.1,0.1-0.2,0.3-0.4,0.5c0,0.1,0,0.2,0,0.2c0.7,0,1.9-0.4,2.1-0.9c0,0,0,0,0,0v-0.1
			c-0.5,0-1.1,0.1-1.4,0.3h0c0.2-0.4,1.2-0.7,1.7-0.9c0.2-0.1,0.5-0.1,0.7,0c0,0,0.1,0,0.1,0c-0.1,0.4-0.6,0.8-1,0.9v0.1
			c0.6-0.1,1.1-0.4,1.6-0.6c0.4-0.1,0.8-0.2,1.1-0.4c0.2-0.1,1-1.2,1-1.4C-159,517.6-159.1,518.5-159.6,519z M-162.6,519.7v0.1
			c-0.1,0-0.1,0.1-0.2,0.2c-0.2,0.1-0.5,0.1-0.6,0.2c-0.1,0-0.1,0-0.1,0h0C-163.5,519.9-162.9,519.7-162.6,519.7z"/>
		<path class="st0" d="M-155.1,490.6c-0.4-0.3-0.5-1.6-0.6-2.2c-0.3-1.2-0.5-2.4-0.8-3.6c-0.2-0.8-0.5-1.5-0.4-2.5
			c0.1-0.1,0.2-0.3,0.4-0.4c0.2-0.1,0.6-0.2,0.7-0.4c0,0,0-0.1,0-0.2c-0.4,0.1-0.8,0.3-1.2,0.5c-0.8,0.3-1.5,0.5-2.3,0.8
			c-0.2,0.1-0.5,0.3-0.8,0.3v0.2c0,0,0.1,0,0.1,0c0,0,1-0.4,1.3-0.1c0.3,0.1,0.3,0.6,0.5,0.8c-0.1,0.6-0.6,1.5-0.9,2
			c-0.6,1.3-1.1,2.5-1.7,3.7c-0.2,0.5-0.5,1.3-0.8,1.6v0c-0.2-0.3-0.2-1-0.3-1.4c-0.3-1.2-0.6-2.5-0.9-3.6c-0.1-0.2-0.3-1.2-0.1-1.4
			c0-0.5,0.8-0.8,1.2-0.9c0-0.1,0-0.2,0-0.3c-0.7,0.1-1.4,0.5-2,0.7c-0.6,0.2-1.1,0.3-1.7,0.5c-0.3,0.1-0.6,0.3-0.9,0.3v0h0
			c0,0.1,0,0.2,0.1,0.2c0.2,0.1,1-0.3,1.3-0.1c0.5,0.2,0.5,1,0.7,1.6c0.5,1.5,0.7,3.2,1.1,4.7c0.1,0.4,0.4,1.6,0.1,1.9
			c-0.1,0.4-0.8,0.6-1.2,0.8c0,0.1,0,0.2,0,0.2c0.6-0.1,1.1-0.4,1.6-0.5c1-0.3,2-0.6,3-1c0-0.1,0-0.2,0-0.3
			c-0.4,0.1-0.7,0.2-1.3,0.2c-0.1-0.1-0.1-0.1-0.2-0.2c-0.1-0.2-0.1-0.4-0.2-0.6c0-0.5,0.7-1.4,0.9-1.8c0.6-1.2,1.2-2.5,1.8-3.8
			c0.2-0.5,0.7-1.2,0.8-1.8c0.2,0.1,0.1,0.4,0.2,0.6c0.1,0.5,0.2,0.9,0.3,1.4c0.3,1,0.4,2,0.6,3c0.1,0.4,0.2,1,0.1,1.4
			c-0.2,0.4-0.8,0.6-1.2,0.8c0,0.1,0,0.2,0.1,0.2c0,0,0.9-0.3,1-0.3c1.1-0.4,2.1-0.9,3.2-1.3c0-0.1,0-0.2,0-0.3
			C-154.2,490.5-154.8,490.8-155.1,490.6z"/>
		<path class="st0" d="M-172.6,448.3c0.2,0.1,0.2,0.3,0.3,0.5c0.2,0.4,0.4,0.8,0.5,1.2v0.3c0.1,0.2,0.4,0.3,0.6,0.4
			c0.1,0,0.2-0.1,0.3-0.1c-0.1-0.7-0.5-1.3-0.8-1.9c-0.1-0.2-0.2-0.4-0.2-0.6c0-0.1,0.1-0.2,0-0.3c-0.1-0.1-0.1-0.1-0.1-0.2
			c-0.1,0,0,0,0-0.1c0.1-0.1,0.2-0.3,0.3-0.4c0.1-0.3,0.1-0.6,0.4-0.7c0-0.4-0.6-0.4-1.1-0.4c-0.1,0-0.1,0.1-0.2,0.1
			c0,0.1,0.1,0.1,0.2,0.2c0.1,1.1-0.7,2.1-1.2,2.8c-0.2,0.3-0.5,0.4-0.7,0.7h0v0C-174,449.7-172.9,448.7-172.6,448.3z"/>
		<path class="st0" d="M-180.2,448.8c0.2,0.1,0.4,0.1,0.6,0.2c0.2,0,0.3,0,0.4,0c0-0.6-0.3-0.9-0.6-1.3c-0.1-0.2-0.2-0.5-0.3-0.6
			c0.1-0.2,0.7-0.3,0.9-0.4c0.6-0.2,1.3-0.4,1.9-0.6c0.3-0.1,0.6-0.1,0.9-0.2c0.1,0,0.2,0,0.3,0.1c0.1,0.2,0.2,1.6,0.1,2
			c-0.4,1.6-0.9,2.8-1.9,3.8v0c0.4-0.1,0.5-0.4,0.8-0.6c1-0.8,1.7-1.9,2-3.3c0.2-0.8-0.1-1.6,0.2-2.3h0c-0.1-0.2-1-0.5-1.3-0.5
			c-0.2,0.2-0.4,0.4-0.6,0.5c-0.3,0.1-0.8,0.1-1.1,0.3c-0.3,0-0.5-0.5-0.3-0.8c0-0.1,0-0.1,0-0.2c-0.2-0.2-0.8-0.2-1.2-0.2
			c-0.1,0.1-0.2,0.1-0.3,0.3h0c0,0.1,0,0,0,0.1c0,0,0.2,0,0.2,0c0.4,0,0.4,0.5,0.6,0.8c0,0.1,0,0,0,0.1c-0.1,0.1-1.2,0.4-1.5,0.5
			c-0.2,0-0.4-0.1-0.5-0.1c-0.3,0-0.6,0.2-0.8,0.3c0.1,0.2,0.4,0.1,0.5,0.3C-180.7,447.5-180.5,448.2-180.2,448.8z"/>
		<path class="st0" d="M-176.7,464.8c0.8,0.2,1.3,1.1,1.7,1.7c0.2,0.3,0.5,0.5,0.7,0.7c0.8,1.1,1.7,2.1,2.5,3.1
			c0.3,0.4,0.7,0.8,1,1.2c0.2,0,0.2,0,0.3-0.1c0.2-0.9,0.3-1.8,0.6-2.7c0.1-0.4,0.3-0.9,0.3-1.4c0.3,0.1,0.6,0.6,0.8,0.8
			c0.6,0.8,1.4,1.4,2,2.3c0.2,0,0.2,0,0.3-0.1c0.2-1.3,0.3-2.6,0.5-3.9v-0.4c0.2-0.8,0.1-1.7,0.3-2.5c0.2-1-0.1-2.1,0.9-2.3
			c0-0.1,0.1-0.1,0-0.2c0-0.1,0,0,0-0.1c0,0,0,0-0.1,0c-0.3,0.2-1.1,0.4-1.5,0.5c-0.3,0.1-0.6,0-0.8,0.2c0,0-0.1,0-0.1,0
			c0,0.1,0,0.2,0,0.2c0.4,0.1,0.8,0,1,0.3c0.1,0.2,0.1,1.1,0,1.4c-0.2,1.1-0.1,2.4-0.4,3.5c-0.1,0.4,0,1.1-0.1,1.4v0.1
			c-0.2-0.1-0.4-0.4-0.5-0.6c-0.3-0.4-0.8-0.8-1.2-1.2c-0.2-0.3-0.4-0.6-0.7-0.8c0-0.7,0.2-1.5,0.4-2.2c0.1-0.5,0.1-1,0.4-1.3
			c0.1-0.2,0.5-0.3,0.7-0.5c0-0.1,0-0.1,0-0.2c0,0,0-0.1,0-0.1c-0.5,0.1-1,0.3-1.4,0.5c-0.4,0.1-0.9,0.1-1.2,0.3c0,0.1,0,0.1,0,0.2
			c0,0,0,0.1,0,0.1c1.3-0.1,1.1,0.6,0.9,1.7c-0.1,0.3,0,0.7-0.2,1v0.1h0c-0.3-0.4-0.7-0.8-1-1.2c-0.1-0.1-0.3-0.3-0.4-0.4
			c-0.1-0.1-0.2-0.3-0.3-0.4c0-0.4,0.4-0.5,0.7-0.6c0-0.2,0-0.2-0.1-0.3c-1,0.1-1.8,0.7-3,0.8v0h0c0,0.1,0,0.1,0,0.2v0.1
			c0.2,0,0.5-0.1,0.8,0c0.4,0.1,0.8,0.6,1,0.9c0.4,0.5,1,0.9,1.3,1.4c0.2,0.3,0.4,0.6,0.7,0.8c0,0.7-0.2,1.4-0.4,2
			c-0.1,0.3,0,0.7-0.2,0.9c0,0.1,0,0,0,0.1c-0.4-0.7-1.1-1.2-1.5-1.8c-0.9-1.2-1.9-2.2-2.8-3.4c0-0.2,0-0.3,0.1-0.3
			c0.1-0.2,0.3-0.4,0.6-0.5c0-0.1,0-0.1,0-0.2c0,0,0-0.1,0-0.1c-0.8,0.1-1.5,0.5-2.2,0.7c-0.4,0.1-0.9,0.1-1.2,0.3c0,0-0.1,0-0.1,0
			c0,0.1,0.1,0.2,0.1,0.3C-177.3,464.8-177,464.7-176.7,464.8z"/>
		<path class="st0" d="M-140.8,460.8c-0.1,1.3-1.2,1.7-2.4,1.2c-0.9-0.4-1.5-1.2-2.1-1.9c-0.2-0.2-0.5-0.4-0.6-0.7
			c-0.2-0.2-0.3-0.5-0.5-0.7v0h-0.1c0.1,0.4,0.3,0.8,0.5,1.1c0.6,1.5,1.5,2.5,2.7,3.4c0.6,0.4,1.6,1.1,2.4,0.5
			c1.5-1.1,0.8-5,0.1-6.4c-0.2-0.4-0.3-0.7-0.5-1c-0.3-0.5-0.6-1.4-1.4-1.4c-0.2,0.2-0.4,0.3-0.5,0.6c-0.7,1.7,0.8,3.6,1.5,4.5
			C-141.5,460.2-141.2,460.6-140.8,460.8z M-142.3,456.7h0.2c0.4,0.4,0.7,0.8,0.9,1.3c0.1,0.3,0.1,0.8,0.3,1c0,0.1,0,0,0,0.1
			c-0.1,0.1-0.5-0.4-0.6-0.5C-142,458.1-142.8,457.4-142.3,456.7z"/>
		<path class="st0" d="M-217.6,457c0.6-0.6,1.8-2.1,1.8-3.3c-0.1-0.1-0.1-0.2-0.2-0.2c-0.2-0.1-0.5-0.1-0.9-0.1
			c-0.1,0.3-0.3,0.6-0.4,0.8c-0.3,0.6-0.5,1.2-0.7,1.7c-0.2,0.5-0.3,1.2-0.6,1.6v0.1C-218.2,457.6-217.9,457.2-217.6,457z
			 M-217.5,455.8c0.2-0.5,0.4-1.1,0.6-1.6c0.1,0,0.3,0,0.3,0.1c0.1,0,0,0,0.1,0.1c0.1,0.2-0.2,0.5-0.3,0.6c-0.2,0.3-0.3,0.6-0.5,0.8
			c-0.2,0.2-0.4,0.4-0.6,0.7h0C-217.7,456.3-217.6,456-217.5,455.8z"/>
		<path class="st0" d="M-221.1,457.8h0.5c0.1-0.1,0.2-0.2,0.3-0.3c0.3-0.3,0.7-0.7,1-1.1h0.1v0.5c-0.3,0.3-0.7,0.7-0.9,1.1v0.3
			c-0.2,0.8,0.2,1.3,0.9,1.2c0.5-0.4,1.3-0.8,1.2-1.7c0,0,0,0,0,0c-0.1,0-0.1,0-0.1,0c-0.3,0.1-0.7,1.4-1.3,1
			c-0.3,0-0.3-0.1-0.5-0.2c0-0.4,0.6-1,0.9-1.2c0-0.6,0.2-1.2,0.1-1.7c0,0-0.1,0-0.1,0c-0.1,0-0.2,0.2-0.3,0.3
			c-0.3,0.3-0.6,0.6-0.8,0.9c-0.3,0-1.4,0-1.6,0.1h-0.1c0.1-0.2,0.8-1.1,0.6-1.4c0,0,0-0.1,0-0.1c-0.7,0-1.5,1.2-1.7,1.7
			c-0.1,0.3-0.1,0.5-0.3,0.8v0c0.5-0.1,1-0.1,1.6-0.2C-221.5,457.7-221.3,457.8-221.1,457.8z M-222.4,457h-0.2
			c0.1-0.4,0.5-0.9,1-0.9v0.2c-0.2,0.2-0.4,0.5-0.5,0.7C-222.3,457-222.4,457-222.4,457z"/>
		<path class="st0" d="M-202.6,482.5L-202.6,482.5c0.1,0.1,0.1,0.3,0.1,0.4c0,0.1,0,0,0,0.1c-0.2,0.1-0.4,0.1-0.6,0.1
			c-0.5,0.1-1.9,0.5-2.2,0.2c-0.2-0.1-0.4-0.3-0.4-0.6c-0.1,0-0.1,0-0.2,0h-0.1c0.1,0.7,0.3,1.5,0.4,2.2h0v0c1.3-0.2,2.7-0.5,4-0.7
			c-0.2-0.7-0.4-1.4-0.6-2.1c-0.1-0.2-0.4-0.1-0.6-0.2c-0.3-0.1-0.7-0.4-0.9-0.7c-0.6-0.8-1.3-2.8-0.8-4.3c0.4-1.2,1.2-2,2.4-2.4
			c0.6-0.2,1.3,0.1,1.7,0.3c1.2,0.6,1.7,1.4,2,2.8c0.5,1.8-0.1,3.5-1.3,4c0.1,0.7,0.2,1.5,0.2,2.2c0.4,0,0.8-0.1,1.2-0.2
			c0.6-0.1,1.2-0.2,1.8-0.3c0.4-0.1,1,0,1.3-0.2c0.1-0.2-0.2-1.3-0.3-1.6c-0.1-0.2,0-0.4-0.1-0.6v-0.1c-0.1,0-0.2,0-0.3,0
			c0,1.1-0.8,1-1.7,1.2c-0.5,0.1-1,0.3-1.5,0.3c0-0.2,0-0.3,0-0.5c0-0.1,0.7-0.4,0.8-0.5c0.4-0.3,0.9-0.8,1.2-1.2
			c0.2-0.3,0.4-0.7,0.5-1.1c0.1-0.5,0.1-1.1,0-1.6c-0.1-0.3,0-0.6-0.2-0.9c-0.4-1.1-1.3-2-2.3-2.4c-0.5-0.2-1-0.2-1.6-0.3
			c-0.5-0.1-1.4,0.1-1.8,0.2c-1.8,0.5-3.1,1.4-3.6,3.2c-0.2,0.7-0.2,1.7,0,2.3C-205.7,481.1-204.5,482.5-202.6,482.5z"/>
		<path class="st0" d="M-197.2,502.9c-0.1,0.3,0.7,1.1,1,1.3c0.1,0.1,0.3,0.3,0.5,0.2c0.1,0,0.1,0,0.2,0c0-0.1,0.1-0.2,0-0.3
			C-195.5,503.5-196.7,503-197.2,502.9z"/>
		<path class="st0" d="M-188.4,504.7c0,0,0.1,0,0.1,0c0-0.5-1-0.7-1.5-0.6c-0.2,0.1-0.5,0.2-0.7,0.3c-0.2,0-0.4,0-0.5,0
			c-0.1-0.6-0.4-1.1-0.4-1.7c0.6,0,1.3-0.1,1.7-0.3c0-0.2,0-0.2-0.1-0.3c-0.4-0.1-1.2-0.1-1.5,0.1c-0.1,0-0.1,0-0.2,0
			c-0.2-0.3-0.1-0.8-0.3-1.1v-0.2c0.4-0.1,1.1-0.2,1.3-0.5c0,0,0,0,0-0.1c0,0,0-0.1-0.1-0.1c-0.6-0.1-0.9,0-1.4,0.1
			c-0.2-0.5,0-0.9-0.5-1.1c0.1-0.2,0.5-0.2,0.7-0.3c0.4-0.1,0.8-0.3,1.1-0.5c0-0.1,0,0,0-0.1c0-0.2-0.1-0.2-0.2-0.3
			c-0.5,0-1,0-1.3,0.3h-0.1c0-0.3,0.2-0.7,0.4-0.9c0.1-0.2,0.3-0.1,0.4-0.3h0v0c-0.1-0.1-0.2-0.2-0.2-0.3c-0.2-0.1-0.4-0.1-0.6-0.3
			c-0.3,0-0.5,0-0.6,0.1c0,0.1,0.1,0.2,0.1,0.3c0.1,0.4-0.3,1.6-0.4,1.8c-0.1,0.1-1.5,0.6-1.9,0.5c-0.1,0-0.3-0.2-0.4-0.2
			c0,0,0,0,0-0.1c0.5-0.5,0.9-1.6,1.7-1.9c0-0.1,0-0.1,0-0.2c-0.2-0.2-1.1-1.1-1.6-0.8c0,0-0.1,0-0.1,0c0,0.3,0.2,0.6,0.1,0.9
			c-0.2,0.7-0.6,1.5-0.9,2c-0.2,0.3-0.7,0.7-0.7,1.2c0.6-0.1,0.8-0.7,1.2-0.9c0.1,0.1,0.3,0.3,0.4,0.4c0.2,0.3,0.2,0.7,0.3,1.1
			c0.2,0.8,0.4,1.6,0.5,2.5c0,0.4,0.1,0.8,0.1,1.2c0.1,0.4,0.4,1,0.8,1.1c0.1,0,0.1,0,0.2,0c0.1-0.1,0.1-0.3,0.2-0.5
			c0.2-0.2,0.6-0.1,0.9-0.2c0.8-0.2,1.7-0.2,2.5-0.4C-189.4,504.6-188.7,504.9-188.4,504.7z M-194.5,499.8c0.1-0.1,1.1-0.3,1.2-0.2
			c0.4,0.2,0.3,0.8,0.5,1.1c-0.1,0.2-1,0.5-1.3,0.5C-194.2,500.8-194.3,500-194.5,499.8z M-194,501.6c0.3,0,1-0.3,1.2-0.4h0
			c0.1,0.3,0.1,0.9,0.3,1.2c-0.1,0.3-1,0.3-1.3,0.5C-193.9,502.8-194,501.9-194,501.6z M-193.4,504.8c-0.1-0.5-0.3-1-0.3-1.6
			c0.6,0,0.9-0.2,1.4-0.3c0,0.4,0.2,1.3,0.4,1.6c0,0,0,0.1,0,0.1C-192.4,504.7-192.9,504.8-193.4,504.8z"/>
		<path class="st0" d="M-224.4,477c0.1,0,0.1,0,0.2,0.1c0.7-0.1,0.9-0.7,1.3-1.1c0.3,0.8,0.1,2.2-0.6,2.3c-0.3,0.2-0.8-0.1-0.9-0.2
			c-0.6-0.6-0.8-1.4-1-2.4c-0.1-0.3,0-1-0.1-1.3c0-0.4,0.1-1.1-0.1-1.3v0l-0.1,0c0,2.4-0.1,6,1.7,6.5c0.7,0.2,1-0.3,1.2-0.6
			c0.8-1.1,0.5-3.3-0.2-4.2c-0.3,0-0.8,0.8-0.9,1.1c-0.1,0-0.1,0-0.1,0c-0.1,0-0.1-0.1-0.2-0.1c-0.1-0.9,0.1-1.7,0.2-2.6
			c1,0.1,1.9,0.7,2.9,0.7c0-0.2,0-0.4,0.1-0.5c0-0.1,0-0.1,0-0.2c-0.1-0.1-0.9-0.3-1.1-0.3v0h0c0.1-1.1-0.2-2-0.9-2.3
			c-0.4-0.1-0.9-0.2-1.3-0.2c-0.2-0.1-0.3-0.3-0.5-0.4c-0.1-0.4-0.1-0.8,0.2-1c0-0.1,0-0.2-0.1-0.2v0h0c-0.1,0.2-0.2,0.5-0.3,0.8
			c-0.2,0.9,0.3,1.7,0.9,1.9c0.4,0.1,0.8,0.1,1.1,0.2c0.3,0.1,0.4,0.4,0.6,0.6c0,0.5-0.5,0.5-0.9,0.4c-0.6-0.2-1.3-0.3-1.9-0.6
			c-0.2-0.1-0.3-0.2-0.5-0.2c0,0.2-0.1,0.5-0.1,0.7c0.5,0.2,1.1,0.3,1.6,0.5C-224.5,474.3-225.1,475.9-224.4,477z"/>
		<path class="st0" d="M-219.7,497.9c0.2,0.1,0.3,0.7,0.4,0.9c0.2,0.5,0.5,1.2,1,1.5v0h0.1c-0.1-0.4-0.3-0.8-0.5-1.2
			c-0.3-0.8-0.6-1.7-0.9-2.5c-0.2-0.5-0.3-0.9-0.4-1.4c-0.1-0.2-0.1-0.5-0.2-0.7v-0.1c0.3,0.1,0.7,0.1,0.9,0.2h0.2
			c0-0.2-0.1-0.5-0.2-0.7c-0.1-0.2-0.8-0.2-1.1-0.3c-0.3-0.2-0.6-0.9-0.8-1.3c-0.5-0.8-1.2-1.8-2-2.3c-0.4-0.3-0.7-0.6-1.5-0.6
			c-0.1,0.1-0.2,0.1-0.3,0.2c-0.2,0.8,0.1,2.2,0.6,2.5v0.1c-0.2,0-0.4-0.1-0.5-0.3h0c0,0.2,0,0.5,0.2,0.6c0,0.2,0.3,0.3,0.5,0.4
			c0.2,1,0.6,2,0.9,2.9c0.3,0.7,0.4,1.4,0.7,2.1c0.1,0.3,0.5,0.6,0.6,0.9h0.1c-0.1-0.3-0.3-0.6-0.4-0.9c-0.3-0.8-0.6-1.7-0.9-2.6
			c-0.2-0.6-0.3-1.1-0.5-1.6c-0.1-0.2,0-0.4-0.1-0.6v0c0.3,0,0.4,0.2,0.6,0.3c0.4,0.2,0.9,0.3,1.3,0.5c0.3,0.1,0.8,0.3,1.2,0.4
			c0,0.3,0.2,1.2,0.4,1.5v0.1c-0.6-0.4-0.6-1-1.6-0.9c-0.1,0.1-0.1,0.1-0.2,0.2c-0.1,0.2-0.1,0.6,0,0.9c0.2,0.6,1,1.9,1.7,2.1
			C-220.1,498.3-219.8,498.1-219.7,497.9z M-220.6,493.5c-0.4,0-0.7-0.2-1.1-0.3c-0.9-0.3-1.6-0.6-2.4-0.9c-0.1-0.3-0.7-1.6-0.4-2
			c0,0,0.1-0.1,0.1-0.1c0.1,0,0.1,0,0.1,0c1.2,0.1,2.3,1.6,2.9,2.3C-221.1,492.8-220.9,493.3-220.6,493.5L-220.6,493.5L-220.6,493.5
			z M-221.6,496.4c0-0.4,0.1-0.4,0.3-0.6c0.1,0,0.1,0,0.2,0c0.6,0,0.7,0.3,1.1,0.5c0.1,0.2,0.1,0.3,0.1,0.6
			c-0.1,0.1-0.2,0.3-0.3,0.4c-0.1,0.1-0.2,0.1-0.3,0.2C-221.3,497.4-221.3,496.8-221.6,496.4z"/>
		<path class="st0" d="M-154.6,446.8c0.4,0.6,0.9,1.2,1.7,1.4c0.9,0.2,1.4-0.8,1.7-1.3c0.4-0.4,1.1-0.5,1.4-1.1c0.1-0.2,0-0.6,0-0.8
			c-0.2-0.4-1-1.6-1.4-1.8c0-0.2,0.1-0.2,0.2-0.4c0.2,0.1,0.3,0.4,0.5,0.6c0.2,0.2,0.5,0.4,0.8,0.6c0.4,0,0.6-0.1,0.8-0.3h0
			c-0.1-0.3-0.4-0.4-0.6-0.6c-0.4-0.4-0.7-0.9-1.1-1.3v0c-0.2,0.1-0.9,0.7-1,0.8c-0.2-0.1-0.4-0.4-0.6-0.5c-0.6-0.5-1.3-1.1-2.4-1.1
			c-0.1,0.1-0.4,0.1-0.5,0.2c-0.5,0.2-1,0.7-1.2,1.2c-0.2,0.6,0,1.4,0.2,1.9C-155.7,445.4-155.1,446.1-154.6,446.8z M-154.8,441.6
			c0.6,0,1,0.4,1.3,0.7c0.9,0.7,1.7,1.6,2.4,2.5c0.3,0.4,0.7,0.7,0.7,1.4c-0.1,0.1-0.1,0.2-0.3,0.3c0,0,0,0-0.1,0
			c-0.5-0.9-1.3-1.6-1.9-2.5c-0.2-0.3-0.5-0.5-0.7-0.8c-0.3-0.5-0.8-0.8-1.1-1.2c-0.1-0.1-0.2-0.2-0.3-0.3
			C-154.8,441.6-154.8,441.6-154.8,441.6z M-155.7,442.1h0.1c0.2,0.3,0.5,0.5,0.7,0.8c0.6,0.8,1.3,1.4,1.8,2.2
			c0.3,0.5,0.7,0.9,1.1,1.4c0.2,0.2,0.3,0.5,0.5,0.7c0,0.2-0.1,0.3-0.2,0.4c-0.7,0.2-1-0.3-1.4-0.6c-0.9-0.9-1.5-2-2.2-3.1
			C-155.4,443.4-156,442.7-155.7,442.1z"/>
	</g>
</g>
</svg>
