<?xml version="1.0" encoding="utf-8"?>
<!-- Generator: Adobe Illustrator 19.1.0, SVG Export Plug-In . SVG Version: 6.00 Build 0)  -->
<svg version="1.1" id="Capa_1" xmlns="http://www.w3.org/2000/svg" xmlns:xlink="http://www.w3.org/1999/xlink" x="0px" y="0px"
	 viewBox="26 175 612 612" style="enable-background:new 26 175 612 612;" xml:space="preserve">
<style type="text/css">
	.st0{fill:#FFFFFF;}
</style>
<g>
	<g>
		<path class="st0" d="M611,396.9l-18.9-2.7l-23.3-2l-6.4-15.9l15.2-17.9l11.1-15.2c4.2-5.7,6.1-11.8,6.1-18.9c0-1,0-1.7-0.3-2.7
			c-0.3-8.1-3.7-14.5-9.1-19.9l-73.9-73.9c-5.4-5.4-11.8-9.4-19.9-9.4h-3c-7.1,0-13.3,1.9-18.6,5.7l-15.2,11.1l-17.9,15.2l-16.2-6.1
			l-2-23.6l-2.7-18.6c-2.2-14.8-16.5-27-31.7-27H279.8c-15.2,0-29.9,12.2-32.1,27l-2.7,18.6l-2,23.6l-15.9,6.1l-17.9-15.2
			l-15.2-11.1c-5.1-3.7-11.1-5.7-17.9-5.7h-3c-8.1,0-14.9,3.7-20.6,9.4l-73.9,73.9c-5.1,5.1-8.1,11.8-8.8,19.9
			c-0.3,1.4-0.3,2.7-0.3,3.7c0,6.4,1.5,12.6,5.4,17.9l11.1,15.2l15.9,17.9c-2.4,4.4-4.4,9.5-6.8,15.9l-23.6,2L53,396.9
			C38.5,399,26,413.8,26,429v104.3c0,15.2,12.5,29.6,27,31.7l18.6,2.7l23.6,2c2.7,7.1,5.1,12.5,6.8,16.2l-15.9,17.9l-11.1,15.2
			c-3.7,5.1-5.4,10.8-5.4,17.2c0,1,0,2.4,0.3,3.7c0.7,8.1,3.4,15.2,8.8,20.6l73.9,73.9c5.6,5.6,12.5,9.1,20.6,9.1h3
			c6.8,0,12.8-2,17.9-5.7l15.2-11.1l17.9-15.9c6.1,3,11.5,5.4,15.9,7.1l2,23.3l2.7,18.9c2.1,14.5,16.9,26.7,32.1,26.7h104.3
			c15.2,0,29.7-12.2,31.7-26.7l2.7-18.9l2-23.3c5.4-2,10.8-4.4,16.2-7.1l17.9,15.9l15.2,11.1c5.3,3.9,11.5,5.4,18.2,5.4h3.4
			c8.1,0,14.8-3.7,19.9-8.8l73.9-73.9c5.7-5.7,8.8-12.5,9.1-20.6c0.3-1,0.3-1.7,0.3-2.7c0-7.1-2.2-13-6.1-18.2l-11.1-15.2L562.4,586
			l6.4-16.2l23.3-2l18.9-2.7c14.8-2.1,27-16.5,27-31.7V429C638,413.8,625.8,399.1,611,396.9z M604.6,532.6l-17.2,2.7l-8.4,0.7
			l-35.1,2.7c-1.4,7.1-3.7,13.7-6.1,19.6c-0.3,1-1.9,5.4-5.7,13.8c-0.9,2.1-3.7,8.1-8.8,17.9l21.9,27l5.4,6.1l10.5,14.5l-72.6,72.6
			l-13.8-10.5l-6.7-5.4l-27-23c-6.8,4.4-12.8,7.5-17.9,9.8c-3,1.4-12.2,4.7-13.8,5.7l-19.6,6.1l-2.7,34.4l-0.7,9.1l-2.7,17.2H280.5
			l-2.7-17.2l-1-9.1l-2.7-34.4l-19.2-6.1l-13.8-5.7c-5.2-2.1-11.1-5.4-17.9-9.8l-27,23l-6.4,5.4l-14.5,10.5l-72.6-72.6l10.5-14.5
			l5.4-6.1l23-27c-4.4-6.8-7.8-12.7-9.8-17.9l-5.4-13.8l-6.1-19.6L85.4,536l-8.8-0.7l-17.5-2.7v-103l17.5-3l8.8-0.7l34.8-2.7
			l6.1-19.2l5.4-13.8c2-5.2,5.4-11.1,9.8-17.9l-23-27l-5.4-7.1l-10.5-13.8l72.6-72.6l14.5,10.5l6.4,5.4l27,22.3l7.4-4
			c4.4-2.4,8.1-4,10.5-5.1c6.8-3,11.5-4.7,13.8-5.4c6.2-2.4,12.5-4.7,19.2-6.1l2.7-35.4l1-8.1l2.7-17.6h103l2.7,17.6l0.7,8.1
			l2.7,35.4c7.1,1.3,13.7,3.8,19.6,6.1c4.7,1.5,9.4,3.2,13.8,5.4l10.1,5.1l7.8,4l27-22.3l6.7-5.4l13.8-10.5l72.6,72.6l-10.5,13.8
			l-5.4,7.1l-21.9,27c5.1,9.8,7.8,15.8,8.8,17.9c2.7,5.7,4.6,10.2,5.7,13.8c2.5,6.1,4.7,12.5,6.1,19.2l35.1,2.7l8.4,0.7l17.2,3
			L604.6,532.6L604.6,532.6z"/>
		<path class="st0" d="M332.2,376.4c-29,0-53.6,10.2-73.9,30.7c-20.2,20.3-30.4,44.9-30.4,73.6c0,29,10.1,53.7,30.4,73.9
			c20.2,20.2,44.9,30.4,73.9,30.4c28.7,0,53.3-10.1,73.9-30.4c20.6-20.3,30.7-44.9,30.7-73.9c0-28.7-10.1-53-30.7-73.6
			C385.5,386.5,360.9,376.4,332.2,376.4z M382.1,531.6c-13.8,13.8-30.7,20.9-50,20.9c-19.9,0-37-6.9-51-20.9
			c-14-14-20.9-31.1-20.9-51c0-19.2,7.1-36.1,20.9-50c14.2-14.2,31.1-21.3,51-21.3c19.2,0,35.9,7.3,50,21.3c14,14,21.3,30.7,21.3,50
			C403.4,500.6,396.3,517.5,382.1,531.6z"/>
	</g>
</g>
</svg>
